<svg width="41" height="49" viewBox="0 0 41 49" fill="none" xmlns="http://www.w3.org/2000/svg">
<path d="M32.1377 8.01135C31.8248 7.53219 29.0277 7.12957 25.8223 7.03564C20.8371 6.90527 19.9952 7.09752 19.6999 8.11056C18.8553 10.6495 20.0269 11.2198 25.854 11.158C32.1729 10.9957 33.7647 10.2612 32.1377 8.01135Z" fill="black"/>
<path d="M22.8328 23.3146C16.6907 19.271 14.8063 18.6719 14.941 20.9394C14.9958 21.8605 17.0935 23.6557 21.2383 26.3959C24.7159 28.6779 27.739 30.4893 28.0933 30.4682C28.3767 30.4514 28.6138 29.6551 28.559 28.734C28.4832 27.4586 27.0527 26.1214 22.8328 23.3146Z" fill="black"/>
<path d="M15.2118 35.7336C11.9867 30.5212 8.1617 25.9844 7.41175 26.5267C6.11601 27.457 6.88426 29.6156 10.2006 33.9694C11.9819 36.4234 13.9133 39.0106 14.4599 39.8314C15.0064 40.6522 15.6862 41.3229 16.0405 41.3018C17.5285 41.2134 17.177 38.8878 15.2118 35.7336Z" fill="black"/>
</svg>
