<svg width="22" height="40" viewBox="0 0 22 40" fill="none" xmlns="http://www.w3.org/2000/svg">
<path fill-rule="evenodd" clip-rule="evenodd" d="M11.8675 16.0139C13.6763 14.4806 17.6062 11.9407 19.0459 15.2877C19.9617 17.4176 19.3975 20.6716 17.4142 22.0504C14.9284 23.7783 12.468 21.4321 11.2629 19.3503C10.9157 18.7511 10.6164 18.121 10.3518 17.4717C10.829 16.9577 11.332 16.468 11.8675 16.0139ZM7.74684 0.501522C6.72755 5.76104 6.85708 11.6855 8.62313 16.8637C7.83163 17.8105 7.15347 18.7672 6.62637 19.6045C3.56474 24.4687 1.7698 30.9242 2.03883 36.6832C2.06844 37.3125 2.80308 37.5172 3.24688 37.2505C3.01791 37.4273 2.78669 37.6013 2.55322 37.7725C2.13122 37.1458 1.82099 36.4729 1.61044 35.7165C1.48194 35.2542 1.47839 34.7269 1.31674 34.2826C1.22052 34.0179 1.01985 34.0246 0.954266 33.722C0.933358 33.6254 0.795599 33.5775 0.74831 33.686C0.619064 33.9833 0.362698 34.0794 0.245899 34.3821C0.0617013 34.8588 0.178775 35.7407 0.257209 36.2209C0.452538 37.4169 0.964774 38.5187 1.66003 39.5024C1.95055 39.9132 2.48107 39.9481 2.88728 39.7051C3.88318 39.1095 4.79465 38.3725 5.64624 37.587C6.38386 36.9063 7.26587 36.1807 7.65154 35.2382C7.95432 34.4994 7.14761 33.8295 6.47622 34.2629C5.65683 34.7917 5.0737 35.6683 4.3538 36.3292C4.04519 36.6125 3.72341 36.8756 3.39672 37.1321C3.48681 37.0345 3.55092 36.9072 3.57156 36.7474C4.23811 31.5853 4.73278 26.6614 7.20488 21.9623C7.81162 20.8079 8.52024 19.7008 9.32773 18.6727C9.37539 18.7823 9.41869 18.895 9.46799 19.0045C11.0967 22.6007 15.4624 26.4337 19.1036 22.7145C21.6884 20.075 22.2477 13.1656 17.7205 12.1127C14.8279 11.4399 11.9554 13.3317 9.71178 15.653C9.21954 14.0346 8.88667 12.3539 8.58682 10.7469C7.96124 7.39679 7.81326 3.94034 7.9603 0.539727C7.96602 0.404884 7.77415 0.36003 7.74684 0.501522Z" fill="black"/>
</svg>
