<svg width="100" height="56" viewBox="0 0 100 56" fill="none" xmlns="http://www.w3.org/2000/svg">
<path fill-rule="evenodd" clip-rule="evenodd" d="M27.1819 30.1621C29.1189 31.5299 32.561 34.6996 29.6805 36.9307C27.8473 38.3502 24.5556 38.6177 22.7246 37.0423C20.4299 35.0677 22.0862 32.0987 23.8004 30.4112C24.2937 29.9252 24.8289 29.4778 25.3914 29.0592C26.0084 29.3927 26.6084 29.7572 27.1819 30.1621ZM41.168 22.2912C35.8207 22.6198 30.1169 24.227 25.5451 27.2321C24.4305 26.7025 23.3345 26.2852 22.392 25.9843C16.9166 24.2366 10.2174 24.1134 4.70873 25.8143C4.1068 26.0004 4.09237 26.7629 4.46163 27.1258C4.23317 26.9484 4.00684 26.768 3.78264 26.5848C4.28388 26.0195 4.85781 25.5508 5.53756 25.1577C5.95303 24.9177 6.46267 24.7824 6.85241 24.5147C7.08459 24.3554 7.02791 24.1628 7.30455 24.0236C7.3928 23.9792 7.40471 23.8338 7.28781 23.8152C6.96772 23.7644 6.81054 23.5402 6.48826 23.5028C5.98059 23.4437 5.15603 23.7776 4.7107 23.9737C3.60161 24.4619 2.6629 25.2335 1.88436 26.1527C1.55931 26.5367 1.65817 27.0591 1.99506 27.3916C2.82082 28.2069 3.76236 28.9051 4.73587 29.5331C5.57944 30.077 6.50262 30.7495 7.51163 30.8872C8.30269 30.9956 8.74953 30.0469 8.16192 29.5053C7.44499 28.8442 6.45038 28.4989 5.6305 27.9671C5.27895 27.7392 4.9438 27.4935 4.61373 27.2413C4.73073 27.3041 4.87006 27.3344 5.02991 27.3144C10.1946 26.6686 15.0858 25.916 20.2538 27.1342C21.5232 27.4329 22.7724 27.8421 23.9699 28.3668C23.8756 28.4403 23.7773 28.5104 23.6836 28.5856C20.6092 31.062 17.9899 36.2476 22.5016 38.8428C25.7037 40.6853 32.5334 39.4986 32.4205 34.8519C32.3484 31.8831 29.7983 29.5751 26.9896 27.9833C28.4335 27.1019 29.9774 26.3593 31.4584 25.667C34.5456 24.2234 37.8551 23.2156 41.1844 22.5074C41.3164 22.4792 41.3119 22.2822 41.168 22.2912Z" fill="black"/>
<g clip-path="url(#clip0_91_139)" filter="url(#filter0_d_91_139)">
<rect width="36" height="27" transform="translate(48.332 16.1396) rotate(-8.18278)" fill="#FFC9F0"/>
<mask id="path-2-outside-1_91_139" maskUnits="userSpaceOnUse" x="49.4707" y="18.7919" width="38.3313" height="17.1441" fill="black">
<rect fill="white" x="49.4707" y="18.7919" width="38.3313" height="17.1441"/>
<path d="M57.8257 28.1506L58.0541 30.4415C58.2192 31.5897 58.4622 32.3427 58.7831 32.7007C58.9794 32.9419 59.2162 33.0426 59.4933 33.0027C59.5725 32.9913 59.6818 32.9554 59.8213 32.8949C60.0871 32.7759 60.3237 32.7823 60.5313 32.9141C60.5053 33.3893 60.0766 33.6866 59.2451 33.8062C58.6777 33.8878 58.2674 33.7043 58.0143 33.2558C57.8179 32.9203 57.6487 32.4934 57.5068 31.975C57.363 31.4434 57.2571 31.0814 57.189 30.8892C56.5665 32.649 55.8783 33.765 55.1245 34.2371C54.742 34.4807 54.2801 34.6414 53.739 34.7192C53.1979 34.797 52.7386 34.6004 52.3611 34.1293C51.9948 33.6432 51.7396 32.8986 51.5953 31.8956C51.4511 30.8925 51.4652 29.8196 51.6376 28.6768C51.8081 27.5207 52.1561 26.521 52.6814 25.6777C53.2048 24.8211 53.8426 24.3388 54.5949 24.2306C55.6771 24.075 56.4609 24.4203 56.9463 25.2665C57.3599 25.9883 57.653 26.9497 57.8257 28.1506ZM52.8845 28.2146C52.8022 28.9538 52.7614 29.6534 52.762 30.3134C52.7607 30.9602 52.7961 31.5343 52.8682 32.0358C52.9385 32.5241 53.0982 32.9322 53.3474 33.2601C53.6098 33.5861 53.9059 33.7253 54.2359 33.6779C54.9486 33.5754 55.538 32.8036 56.0044 31.3626C56.4707 29.9215 56.6203 28.6203 56.4533 27.4589C56.3451 26.7067 56.058 26.1149 55.5918 25.6835C55.2823 25.4047 54.9098 25.2966 54.4743 25.3592C54.052 25.42 53.6987 25.7267 53.4145 26.2795C53.1416 26.8171 52.9649 27.4622 52.8845 28.2146ZM62.9439 31.2538L63.1655 32.3736C63.2073 32.664 63.1509 32.8809 62.9964 33.0243C62.8532 33.1527 62.6959 33.2292 62.5243 33.2539C62.3659 33.2766 62.1972 33.274 62.018 33.2458C61.5075 31.7567 61.0089 29.8819 60.5222 27.6215C60.0488 25.3592 59.777 24.0781 59.707 23.7784C59.8783 23.5651 60.0696 23.4433 60.2808 23.413C60.5051 23.3807 60.7069 23.3787 60.8861 23.4068C60.9939 23.7819 61.1549 24.6209 61.3692 25.9236C61.5835 27.2264 61.7341 28.0399 61.8212 28.3641C61.8465 27.229 62.0275 26.1455 62.3641 25.1138C62.5502 24.5347 62.8317 24.0565 63.2085 23.679C63.5965 23.2864 64.0347 23.055 64.523 22.9848C65.0245 22.9127 65.5121 23.0716 65.9858 23.4615C66.4707 23.8363 66.7388 24.2018 66.7901 24.5582C66.809 24.6901 66.745 24.8071 66.598 24.9091C66.4492 24.9978 66.2757 25.0564 66.0778 25.0849C65.893 25.1115 65.7374 25.0598 65.6109 24.9298C65.4845 24.7998 65.3891 24.6519 65.3249 24.486C65.2587 24.3069 65.1492 24.1543 64.9963 24.0281C64.8435 23.9019 64.6549 23.8549 64.4305 23.8872C63.8366 23.9726 63.4054 24.5801 63.1368 25.7099C62.7197 27.3998 62.6554 29.2477 62.9439 31.2538ZM69.4587 22.8207C69.2085 23.5167 69.1755 24.5048 69.3596 25.7849C69.6366 27.7118 70.2207 29.1971 71.1116 30.2409C71.6307 30.8533 72.1806 31.1177 72.7613 31.0342C73.3552 30.9488 73.7857 30.5703 74.0529 29.8988C74.3651 29.0726 74.4245 27.9865 74.2309 26.6403C73.988 24.951 73.5711 23.738 72.9802 23.0013C72.714 22.6489 72.5488 22.3898 72.4845 22.2239C72.4335 22.0561 72.4616 21.9241 72.569 21.8278C72.6764 21.7316 72.8687 21.6635 73.1458 21.6237C73.9509 21.5079 74.5984 22.2634 75.0882 23.8903C75.2338 24.3408 75.3398 24.797 75.4063 25.2589C75.579 26.4599 75.5141 27.6951 75.2117 28.9644C74.7758 30.7108 73.832 31.6885 72.3803 31.8972C71.6148 32.0073 70.9208 31.8175 70.298 31.3278C69.1262 30.3917 68.3837 28.8349 68.0706 26.6573C67.934 25.7071 67.8956 24.9717 67.9554 24.4512C68.0153 23.9307 68.081 23.5913 68.1525 23.4328C68.2221 23.2611 68.3134 23.0998 68.4264 22.9489C68.5394 22.7979 68.677 22.7243 68.8392 22.7279C69.0145 22.7296 69.221 22.7605 69.4587 22.8207ZM86.2939 29.3105C86.0924 29.5955 85.8399 29.7597 85.5364 29.8034C84.9689 29.885 84.5029 29.6422 84.1385 29.0749C83.774 28.5077 83.5028 27.7924 83.3247 26.9289C83.1599 26.0636 83.0082 25.1963 82.8698 24.3272C82.7313 23.458 82.5525 22.7294 82.3332 22.1413C82.1271 21.5513 81.8525 21.2809 81.5094 21.3303C81.0475 21.3967 80.7113 21.8694 80.5009 22.7483C80.3038 23.6252 80.2122 24.5813 80.2264 25.6165C80.2649 28.5071 80.1372 30.1487 79.8434 30.5412C79.6229 30.6941 79.4269 30.7829 79.2554 30.8076C79.0838 30.8323 78.9358 30.8333 78.8113 30.8108C78.3596 29.6365 77.8806 27.5703 77.3744 24.6122C77.1355 23.1379 76.9715 22.1849 76.8825 21.7531C77.133 21.5285 77.3573 21.402 77.5553 21.3735C77.7532 21.345 77.9145 21.3421 78.0389 21.3646C78.1865 21.9226 78.3865 23.0792 78.6389 24.8345C78.9045 26.5879 79.0629 27.5956 79.1141 27.8577C79.1402 27.571 79.1548 27.1109 79.158 26.4774C79.1744 25.8419 79.1937 25.3205 79.216 24.9132C79.2364 24.4927 79.2934 23.9995 79.3872 23.4338C79.4809 22.868 79.6106 22.4115 79.7762 22.0644C79.94 21.7041 80.1904 21.3852 80.5277 21.1077C80.8631 20.817 81.2617 20.6385 81.7237 20.5721C82.3439 20.4829 82.8335 20.7021 83.1922 21.2297C83.5623 21.7423 83.8203 22.4124 83.9662 23.24C84.1122 24.0677 84.2468 24.9104 84.3702 25.7683C84.5067 26.6242 84.7252 27.3943 85.0257 28.0785C85.3393 28.7608 85.7621 29.1715 86.2939 29.3105Z"/>
</mask>
<path d="M57.8257 28.1506L58.0541 30.4415C58.2192 31.5897 58.4622 32.3427 58.7831 32.7007C58.9794 32.9419 59.2162 33.0426 59.4933 33.0027C59.5725 32.9913 59.6818 32.9554 59.8213 32.8949C60.0871 32.7759 60.3237 32.7823 60.5313 32.9141C60.5053 33.3893 60.0766 33.6866 59.2451 33.8062C58.6777 33.8878 58.2674 33.7043 58.0143 33.2558C57.8179 32.9203 57.6487 32.4934 57.5068 31.975C57.363 31.4434 57.2571 31.0814 57.189 30.8892C56.5665 32.649 55.8783 33.765 55.1245 34.2371C54.742 34.4807 54.2801 34.6414 53.739 34.7192C53.1979 34.797 52.7386 34.6004 52.3611 34.1293C51.9948 33.6432 51.7396 32.8986 51.5953 31.8956C51.4511 30.8925 51.4652 29.8196 51.6376 28.6768C51.8081 27.5207 52.1561 26.521 52.6814 25.6777C53.2048 24.8211 53.8426 24.3388 54.5949 24.2306C55.6771 24.075 56.4609 24.4203 56.9463 25.2665C57.3599 25.9883 57.653 26.9497 57.8257 28.1506ZM52.8845 28.2146C52.8022 28.9538 52.7614 29.6534 52.762 30.3134C52.7607 30.9602 52.7961 31.5343 52.8682 32.0358C52.9385 32.5241 53.0982 32.9322 53.3474 33.2601C53.6098 33.5861 53.9059 33.7253 54.2359 33.6779C54.9486 33.5754 55.538 32.8036 56.0044 31.3626C56.4707 29.9215 56.6203 28.6203 56.4533 27.4589C56.3451 26.7067 56.058 26.1149 55.5918 25.6835C55.2823 25.4047 54.9098 25.2966 54.4743 25.3592C54.052 25.42 53.6987 25.7267 53.4145 26.2795C53.1416 26.8171 52.9649 27.4622 52.8845 28.2146ZM62.9439 31.2538L63.1655 32.3736C63.2073 32.664 63.1509 32.8809 62.9964 33.0243C62.8532 33.1527 62.6959 33.2292 62.5243 33.2539C62.3659 33.2766 62.1972 33.274 62.018 33.2458C61.5075 31.7567 61.0089 29.8819 60.5222 27.6215C60.0488 25.3592 59.777 24.0781 59.707 23.7784C59.8783 23.5651 60.0696 23.4433 60.2808 23.413C60.5051 23.3807 60.7069 23.3787 60.8861 23.4068C60.9939 23.7819 61.1549 24.6209 61.3692 25.9236C61.5835 27.2264 61.7341 28.0399 61.8212 28.3641C61.8465 27.229 62.0275 26.1455 62.3641 25.1138C62.5502 24.5347 62.8317 24.0565 63.2085 23.679C63.5965 23.2864 64.0347 23.055 64.523 22.9848C65.0245 22.9127 65.5121 23.0716 65.9858 23.4615C66.4707 23.8363 66.7388 24.2018 66.7901 24.5582C66.809 24.6901 66.745 24.8071 66.598 24.9091C66.4492 24.9978 66.2757 25.0564 66.0778 25.0849C65.893 25.1115 65.7374 25.0598 65.6109 24.9298C65.4845 24.7998 65.3891 24.6519 65.3249 24.486C65.2587 24.3069 65.1492 24.1543 64.9963 24.0281C64.8435 23.9019 64.6549 23.8549 64.4305 23.8872C63.8366 23.9726 63.4054 24.5801 63.1368 25.7099C62.7197 27.3998 62.6554 29.2477 62.9439 31.2538ZM69.4587 22.8207C69.2085 23.5167 69.1755 24.5048 69.3596 25.7849C69.6366 27.7118 70.2207 29.1971 71.1116 30.2409C71.6307 30.8533 72.1806 31.1177 72.7613 31.0342C73.3552 30.9488 73.7857 30.5703 74.0529 29.8988C74.3651 29.0726 74.4245 27.9865 74.2309 26.6403C73.988 24.951 73.5711 23.738 72.9802 23.0013C72.714 22.6489 72.5488 22.3898 72.4845 22.2239C72.4335 22.0561 72.4616 21.9241 72.569 21.8278C72.6764 21.7316 72.8687 21.6635 73.1458 21.6237C73.9509 21.5079 74.5984 22.2634 75.0882 23.8903C75.2338 24.3408 75.3398 24.797 75.4063 25.2589C75.579 26.4599 75.5141 27.6951 75.2117 28.9644C74.7758 30.7108 73.832 31.6885 72.3803 31.8972C71.6148 32.0073 70.9208 31.8175 70.298 31.3278C69.1262 30.3917 68.3837 28.8349 68.0706 26.6573C67.934 25.7071 67.8956 24.9717 67.9554 24.4512C68.0153 23.9307 68.081 23.5913 68.1525 23.4328C68.2221 23.2611 68.3134 23.0998 68.4264 22.9489C68.5394 22.7979 68.677 22.7243 68.8392 22.7279C69.0145 22.7296 69.221 22.7605 69.4587 22.8207ZM86.2939 29.3105C86.0924 29.5955 85.8399 29.7597 85.5364 29.8034C84.9689 29.885 84.5029 29.6422 84.1385 29.0749C83.774 28.5077 83.5028 27.7924 83.3247 26.9289C83.1599 26.0636 83.0082 25.1963 82.8698 24.3272C82.7313 23.458 82.5525 22.7294 82.3332 22.1413C82.1271 21.5513 81.8525 21.2809 81.5094 21.3303C81.0475 21.3967 80.7113 21.8694 80.5009 22.7483C80.3038 23.6252 80.2122 24.5813 80.2264 25.6165C80.2649 28.5071 80.1372 30.1487 79.8434 30.5412C79.6229 30.6941 79.4269 30.7829 79.2554 30.8076C79.0838 30.8323 78.9358 30.8333 78.8113 30.8108C78.3596 29.6365 77.8806 27.5703 77.3744 24.6122C77.1355 23.1379 76.9715 22.1849 76.8825 21.7531C77.133 21.5285 77.3573 21.402 77.5553 21.3735C77.7532 21.345 77.9145 21.3421 78.0389 21.3646C78.1865 21.9226 78.3865 23.0792 78.6389 24.8345C78.9045 26.5879 79.0629 27.5956 79.1141 27.8577C79.1402 27.571 79.1548 27.1109 79.158 26.4774C79.1744 25.8419 79.1937 25.3205 79.216 24.9132C79.2364 24.4927 79.2934 23.9995 79.3872 23.4338C79.4809 22.868 79.6106 22.4115 79.7762 22.0644C79.94 21.7041 80.1904 21.3852 80.5277 21.1077C80.8631 20.817 81.2617 20.6385 81.7237 20.5721C82.3439 20.4829 82.8335 20.7021 83.1922 21.2297C83.5623 21.7423 83.8203 22.4124 83.9662 23.24C84.1122 24.0677 84.2468 24.9104 84.3702 25.7683C84.5067 26.6242 84.7252 27.3943 85.0257 28.0785C85.3393 28.7608 85.7621 29.1715 86.2939 29.3105Z" fill="#0C0C0C"/>
<path d="M57.8257 28.1506L58.1245 28.1209L58.1227 28.1079L57.8257 28.1506ZM58.0541 30.4415L57.7553 30.4713L57.7572 30.4842L58.0541 30.4415ZM58.7831 32.7007L59.0158 32.5113L59.0113 32.5058L59.0065 32.5005L58.7831 32.7007ZM59.8213 32.8949L59.9406 33.1702L59.9439 33.1687L59.8213 32.8949ZM60.5313 32.9141L60.8308 32.9304L60.8404 32.755L60.6921 32.6608L60.5313 32.9141ZM58.0143 33.2558L58.2756 33.1083L58.2732 33.1042L58.0143 33.2558ZM57.5068 31.975L57.2172 32.0533L57.2175 32.0542L57.5068 31.975ZM57.189 30.8892L57.4718 30.789L57.1889 29.9898L56.9062 30.7891L57.189 30.8892ZM55.1245 34.2371L54.9653 33.9828L54.9634 33.984L55.1245 34.2371ZM52.3611 34.1293L52.1213 34.3099L52.127 34.3169L52.3611 34.1293ZM51.6376 28.6768L51.9343 28.7215L51.9344 28.7205L51.6376 28.6768ZM52.6814 25.6777L52.936 25.8363L52.9374 25.8341L52.6814 25.6777ZM56.9463 25.2665L57.2066 25.1173L57.2065 25.1172L56.9463 25.2665ZM52.8845 28.2146L53.1827 28.2478L53.1828 28.2465L52.8845 28.2146ZM52.762 30.3134L53.062 30.314L53.062 30.3131L52.762 30.3134ZM53.3474 33.2601L53.1084 33.4417L53.1137 33.4482L53.3474 33.2601ZM56.0044 31.3626L56.2898 31.455L56.0044 31.3626ZM55.5918 25.6835L55.7956 25.4633L55.7926 25.4606L55.5918 25.6835ZM53.4145 26.2795L53.1477 26.1423L53.147 26.1437L53.4145 26.2795ZM57.5272 28.1804L57.7556 30.4712L58.3526 30.4117L58.1243 28.1209L57.5272 28.1804ZM57.7572 30.4842C57.8411 31.0681 57.9462 31.5613 58.0747 31.9595C58.2018 32.3535 58.3588 32.6768 58.5597 32.901L59.0065 32.5005C58.8865 32.3666 58.7616 32.1345 58.6457 31.7753C58.5312 31.4204 58.4322 30.9631 58.3511 30.3988L57.7572 30.4842ZM58.5504 32.8901C58.8045 33.2022 59.1414 33.3564 59.536 33.2996L59.4506 32.7058C59.2909 32.7287 59.1544 32.6816 59.0158 32.5113L58.5504 32.8901ZM59.536 33.2996C59.6556 33.2824 59.7945 33.2335 59.9406 33.1702L59.702 32.6197C59.5692 32.6772 59.4894 32.7002 59.4506 32.7058L59.536 33.2996ZM59.9439 33.1687C60.1374 33.0821 60.2646 33.1001 60.3704 33.1673L60.6921 32.6608C60.3828 32.4644 60.0368 32.4697 59.6987 32.6211L59.9439 33.1687ZM60.2317 32.8977C60.2243 33.0331 60.166 33.1452 60.0193 33.247C59.8596 33.3577 59.5971 33.4525 59.2024 33.5093L59.2878 34.1031C59.7246 34.0403 60.0922 33.9266 60.3613 33.74C60.6433 33.5444 60.8123 33.2702 60.8308 32.9304L60.2317 32.8977ZM59.2024 33.5093C58.9595 33.5442 58.7751 33.5189 58.6343 33.4559C58.4961 33.3941 58.3753 33.2852 58.2756 33.1084L57.753 33.4032C57.9063 33.6749 58.1173 33.882 58.3893 34.0037C58.6588 34.1241 58.9633 34.1498 59.2878 34.1031L59.2024 33.5093ZM58.2732 33.1042C58.094 32.7982 57.9336 32.3977 57.7962 31.8958L57.2175 32.0542C57.3639 32.589 57.5417 33.0424 57.7554 33.4074L58.2732 33.1042ZM57.7964 31.8966C57.6529 31.366 57.5442 30.9936 57.4718 30.789L56.9062 30.9893C56.9699 31.1693 57.0732 31.5207 57.2172 32.0533L57.7964 31.8966ZM56.9062 30.7891C56.2859 32.5428 55.6254 33.5694 54.9653 33.9828L55.2838 34.4913C56.1313 33.9605 56.8471 32.7553 57.4719 30.9892L56.9062 30.7891ZM54.9634 33.984C54.6233 34.2006 54.2038 34.3493 53.6963 34.4222L53.7817 35.0161C54.3565 34.9335 54.8606 34.7608 55.2857 34.4901L54.9634 33.984ZM53.6963 34.4222C53.2729 34.4831 52.9146 34.3403 52.5951 33.9417L52.127 34.3169C52.5626 34.8604 53.1229 35.1109 53.7817 35.0161L53.6963 34.4222ZM52.6007 33.9488C52.2787 33.5215 52.0335 32.8352 51.8923 31.8529L51.2984 31.9383C51.4456 32.9619 51.7109 33.7648 52.1214 34.3098L52.6007 33.9488ZM51.8923 31.8529C51.7527 30.8826 51.7656 29.8394 51.9343 28.7215L51.341 28.632C51.1648 29.7998 51.1494 30.9025 51.2984 31.9383L51.8923 31.8529ZM51.9344 28.7205C52.1 27.5982 52.436 26.6391 52.936 25.8363L52.4267 25.5191C51.8761 26.403 51.5163 27.4433 51.3408 28.633L51.9344 28.7205ZM52.9374 25.8341C53.4302 25.0277 54.0002 24.6192 54.6376 24.5275L54.5522 23.9336C53.685 24.0583 52.9794 24.6146 52.4254 25.5212L52.9374 25.8341ZM54.6376 24.5275C55.1383 24.4555 55.5454 24.5029 55.8734 24.6474C56.1988 24.7907 56.4706 25.0401 56.686 25.4157L57.2065 25.1172C56.9366 24.6466 56.5738 24.3003 56.1153 24.0983C55.6596 23.8975 55.1337 23.85 54.5522 23.9336L54.6376 24.5275ZM56.686 25.4156C57.0742 26.0932 57.3592 27.0142 57.5288 28.1933L58.1227 28.1079C57.9469 26.8852 57.6455 25.8834 57.2066 25.1173L56.686 25.4156ZM52.5864 28.1814C52.503 28.9304 52.4614 29.6412 52.462 30.3137L53.062 30.3131C53.0614 29.6656 53.1015 28.9773 53.1827 28.2478L52.5864 28.1814ZM52.462 30.3128C52.4607 30.9703 52.4966 31.5594 52.5713 32.0785L53.1652 31.9931C53.0956 31.5092 53.0607 30.95 53.062 30.314L52.462 30.3128ZM52.5713 32.0785C52.6473 32.6073 52.8229 33.0658 53.1085 33.4416L53.5862 33.0785C53.3734 32.7986 53.2296 32.4409 53.1652 31.9931L52.5713 32.0785ZM53.1137 33.4482C53.4229 33.8323 53.8161 34.0413 54.2786 33.9748L54.1932 33.3809C53.9958 33.4093 53.7967 33.3398 53.5811 33.072L53.1137 33.4482ZM54.2786 33.9748C54.7367 33.9089 55.1255 33.6303 55.4509 33.2043C55.7745 32.7806 56.0513 32.1918 56.2898 31.455L55.7189 31.2702C55.4911 31.9744 55.24 32.492 54.9741 32.8401C54.71 33.1859 54.4478 33.3443 54.1932 33.3809L54.2786 33.9748ZM56.2898 31.455C56.7662 29.9826 56.9254 28.6341 56.7503 27.4162L56.1564 27.5016C56.3152 28.6065 56.1751 29.8605 55.7189 31.2702L56.2898 31.455ZM56.7503 27.4162C56.6343 26.6098 56.3217 25.9501 55.7956 25.4633L55.3881 25.9037C55.7943 26.2796 56.056 26.8036 56.1564 27.5016L56.7503 27.4162ZM55.7926 25.4606C55.4128 25.1185 54.9496 24.9878 54.4316 25.0623L54.517 25.6562C54.8701 25.6054 55.1519 25.6909 55.3911 25.9064L55.7926 25.4606ZM54.4316 25.0623C53.8745 25.1424 53.4549 25.5449 53.1477 26.1423L53.6813 26.4166C53.9426 25.9085 54.2295 25.6975 54.517 25.6562L54.4316 25.0623ZM53.147 26.1437C52.854 26.7209 52.6695 27.4029 52.5862 28.1827L53.1828 28.2465C53.2603 27.5214 53.4292 26.9133 53.682 26.4152L53.147 26.1437ZM62.9439 31.2538L62.6469 31.2965L62.6481 31.3043L62.6496 31.312L62.9439 31.2538ZM63.1655 32.3736L63.4625 32.3309L63.4614 32.3231L63.4598 32.3154L63.1655 32.3736ZM62.9964 33.0243L63.1967 33.2477L63.2006 33.2442L62.9964 33.0243ZM62.018 33.2458L61.7342 33.3431L61.7928 33.5142L61.9715 33.5422L62.018 33.2458ZM60.5222 27.6215L60.2286 27.6829L60.229 27.6846L60.5222 27.6215ZM59.707 23.7784L59.4731 23.5904L59.3816 23.7043L59.4148 23.8466L59.707 23.7784ZM60.8861 23.4068L61.1744 23.3239L61.1215 23.1401L60.9326 23.1104L60.8861 23.4068ZM61.3692 25.9236L61.6652 25.8749L61.3692 25.9236ZM61.8212 28.3641L61.5314 28.4419L62.1211 28.3708L61.8212 28.3641ZM62.3641 25.1138L62.6493 25.2068L62.6497 25.2056L62.3641 25.1138ZM63.2085 23.679L63.4208 23.8909L63.4218 23.8899L63.2085 23.679ZM65.9858 23.4615L65.795 23.6932L65.8023 23.6989L65.9858 23.4615ZM66.598 24.9091L66.7517 25.1668L66.7605 25.1615L66.769 25.1556L66.598 24.9091ZM65.6109 24.9298L65.826 24.7206L65.6109 24.9298ZM65.3249 24.486L65.0434 24.59L65.0451 24.5944L65.3249 24.486ZM64.9963 24.0281L64.8053 24.2594L64.9963 24.0281ZM63.1368 25.7099L63.4281 25.7818L63.4286 25.7793L63.1368 25.7099ZM62.6496 31.312L62.8712 32.4319L63.4598 32.3154L63.2382 31.1955L62.6496 31.312ZM62.8686 32.4163C62.9023 32.6505 62.8487 32.7521 62.7923 32.8045L63.2006 33.2442C63.4532 33.0096 63.5123 32.6774 63.4625 32.3309L62.8686 32.4163ZM62.7962 32.8009C62.6921 32.8942 62.5882 32.9416 62.4816 32.9569L62.567 33.5508C62.8035 33.5168 63.0144 33.4111 63.1967 33.2477L62.7962 32.8009ZM62.4816 32.9569C62.3565 32.9749 62.218 32.9736 62.0645 32.9495L61.9715 33.5422C62.1763 33.5744 62.3754 33.5784 62.567 33.5508L62.4816 32.9569ZM62.3018 33.1486C61.7965 31.6744 61.3008 29.812 60.8155 27.5583L60.229 27.6846C60.7171 29.9518 61.2186 31.8389 61.7342 33.3431L62.3018 33.1486ZM60.8159 27.56C60.3429 25.3002 60.0702 24.0143 59.9991 23.7101L59.4148 23.8466C59.4838 24.142 59.7546 25.4181 60.2286 27.6829L60.8159 27.56ZM59.9408 23.9663C60.0785 23.795 60.207 23.7267 60.3235 23.7099L60.2381 23.116C59.9323 23.16 59.6782 23.3353 59.4731 23.5904L59.9408 23.9663ZM60.3235 23.7099C60.5253 23.6809 60.6962 23.6806 60.8395 23.7031L60.9326 23.1104C60.7176 23.0767 60.485 23.0805 60.2381 23.116L60.3235 23.7099ZM60.5977 23.4896C60.6998 23.8446 60.8582 24.6651 61.0732 25.9723L61.6652 25.8749C61.4517 24.5766 61.288 23.7192 61.1744 23.3239L60.5977 23.4896ZM61.0732 25.9723C61.2866 27.2697 61.4397 28.1001 61.5314 28.4419L62.1109 28.2864C62.0286 27.9797 61.8804 27.183 61.6652 25.8749L61.0732 25.9723ZM62.1211 28.3708C62.1458 27.2637 62.3222 26.2094 62.6493 25.2068L62.0789 25.0207C61.7328 26.0817 61.5472 27.1943 61.5212 28.3574L62.1211 28.3708ZM62.6497 25.2056C62.8233 24.6654 63.0821 24.2303 63.4208 23.8909L62.9961 23.4671C62.5813 23.8827 62.2771 24.404 62.0785 25.022L62.6497 25.2056ZM63.4218 23.8899C63.7696 23.538 64.1498 23.3416 64.5657 23.2818L64.4803 22.6879C63.9196 22.7685 63.4234 23.0348 62.9951 23.4681L63.4218 23.8899ZM64.5657 23.2818C64.9664 23.2242 65.3717 23.3446 65.7951 23.6931L66.1764 23.2299C65.6525 22.7986 65.0827 22.6013 64.4803 22.6879L64.5657 23.2818ZM65.8023 23.6989C66.266 24.0572 66.4586 24.3607 66.4931 24.6009L67.087 24.5155C67.0191 24.043 66.6755 23.6153 66.1692 23.2241L65.8023 23.6989ZM66.4931 24.6009C66.4935 24.6037 66.4931 24.6032 66.4935 24.6009C66.4939 24.5986 66.4945 24.5984 66.4931 24.6009C66.4898 24.607 66.4747 24.6295 66.4271 24.6626L66.769 25.1556C66.9722 25.0147 67.1277 24.7987 67.087 24.5155L66.4931 24.6009ZM66.4444 24.6514C66.3344 24.717 66.1998 24.7643 66.0351 24.788L66.1205 25.3819C66.3517 25.3486 66.5639 25.2787 66.7517 25.1668L66.4444 24.6514ZM66.0351 24.788C65.942 24.8013 65.8832 24.7794 65.826 24.7206L65.3959 25.139C65.5916 25.3401 65.844 25.4216 66.1205 25.3819L66.0351 24.788ZM65.826 24.7206C65.7271 24.6189 65.654 24.5051 65.6046 24.3776L65.0451 24.5944C65.1242 24.7986 65.2419 24.9806 65.3959 25.139L65.826 24.7206ZM65.6063 24.382C65.521 24.1513 65.3794 23.9553 65.1873 23.7967L64.8053 24.2594C64.919 24.3532 64.9964 24.4625 65.0435 24.5899L65.6063 24.382ZM65.1873 23.7967C64.9597 23.6088 64.6826 23.5478 64.3878 23.5902L64.4732 24.1841C64.6272 24.162 64.7273 24.195 64.8053 24.2594L65.1873 23.7967ZM64.3878 23.5902C63.9907 23.6473 63.668 23.8797 63.417 24.2333C63.1702 24.581 62.9837 25.0568 62.8449 25.6405L63.4286 25.7793C63.5585 25.2332 63.7219 24.8404 63.9063 24.5805C64.0866 24.3265 64.2765 24.2124 64.4732 24.1841L64.3878 23.5902ZM62.8455 25.638C62.4178 27.371 62.3539 29.2584 62.6469 31.2965L63.2408 31.2111C62.957 29.237 63.0216 27.4285 63.428 25.7818L62.8455 25.638ZM69.4587 22.8207L69.741 22.9221L69.8528 22.6109L69.5322 22.5298L69.4587 22.8207ZM71.1116 30.2409L71.3405 30.0469L71.3398 30.0462L71.1116 30.2409ZM74.0529 29.8988L74.3317 30.0097L74.3335 30.0049L74.0529 29.8988ZM72.9802 23.0013L72.7408 23.1822L72.7462 23.189L72.9802 23.0013ZM72.4845 22.2239L72.1975 22.3113L72.2008 22.3219L72.2048 22.3323L72.4845 22.2239ZM75.0882 23.8903L74.8009 23.9768L74.8028 23.9825L75.0882 23.8903ZM75.2117 28.9644L75.5028 29.037L75.5035 29.0339L75.2117 28.9644ZM70.298 31.3278L70.1108 31.5622L70.1126 31.5636L70.298 31.3278ZM68.1525 23.4328L68.4261 23.5563L68.4305 23.5455L68.1525 23.4328ZM68.4264 22.9489L68.1862 22.7691L68.1862 22.7691L68.4264 22.9489ZM68.8392 22.7279L68.8325 23.0278L68.8362 23.0279L68.8392 22.7279ZM69.1763 22.7192C68.9015 23.484 68.8761 24.5303 69.0626 25.8276L69.6565 25.7422C69.4749 24.4793 69.5156 23.5493 69.741 22.9221L69.1763 22.7192ZM69.0626 25.8276C69.3446 27.7882 69.9433 29.3342 70.8835 30.4357L71.3398 30.0462C70.498 29.06 69.9287 27.6353 69.6565 25.7422L69.0626 25.8276ZM70.8828 30.4349C71.4414 31.0938 72.0854 31.4345 72.804 31.3311L72.7186 30.7373C72.2759 30.8009 71.8201 30.6127 71.3405 30.0469L70.8828 30.4349ZM72.804 31.3311C73.5276 31.2271 74.0344 30.7569 74.3316 30.0097L73.7741 29.7879C73.5371 30.3837 73.1828 30.6705 72.7186 30.7373L72.804 31.3311ZM74.3335 30.0049C74.6708 29.1124 74.7251 27.9692 74.5279 26.5976L73.934 26.683C74.1239 28.0037 74.0595 29.0329 73.7723 29.7928L74.3335 30.0049ZM74.5279 26.5976C74.2826 24.892 73.8561 23.6138 73.2143 22.8136L72.7462 23.189C73.2861 23.8622 73.6934 25.0101 73.934 26.683L74.5279 26.5976ZM73.2196 22.8204C72.9526 22.467 72.8117 22.2379 72.7643 22.1155L72.2048 22.3323C72.2859 22.5416 72.4754 22.8307 72.7409 23.1821L73.2196 22.8204ZM72.7715 22.1365C72.7565 22.0871 72.76 22.0652 72.7608 22.0616C72.761 22.0606 72.7612 22.0602 72.7612 22.0602C72.7612 22.0602 72.7612 22.0601 72.7613 22.0599C72.7614 22.0597 72.7632 22.0567 72.7693 22.0512L72.3688 21.6045C72.2712 21.6919 72.2022 21.804 72.174 21.9365C72.1466 22.0649 72.1615 22.1929 72.1975 22.3113L72.7715 22.1365ZM72.7693 22.0512C72.8073 22.0171 72.9237 21.9587 73.1885 21.9206L73.1031 21.3267C72.8136 21.3683 72.5455 21.446 72.3688 21.6045L72.7693 22.0512ZM73.1885 21.9206C73.4658 21.8807 73.7333 21.9788 74.0074 22.2987C74.2912 22.6299 74.5607 23.179 74.801 23.9768L75.3755 23.8038C75.1258 22.9748 74.8267 22.3326 74.463 21.9083C74.0897 21.4726 73.631 21.2508 73.1031 21.3267L73.1885 21.9206ZM74.8028 23.9825C74.9432 24.4171 75.0454 24.8568 75.1093 25.3016L75.7032 25.2162C75.6343 24.7373 75.5244 24.2645 75.3737 23.798L74.8028 23.9825ZM75.1093 25.3016C75.2762 26.4625 75.2142 27.6595 74.9199 28.8948L75.5035 29.0339C75.814 27.7306 75.8817 26.4574 75.7032 25.2162L75.1093 25.3016ZM74.9206 28.8917C74.7114 29.73 74.3865 30.3585 73.9611 30.7991C73.5393 31.2361 73.0031 31.5046 72.3376 31.6003L72.423 32.1942C73.2092 32.0811 73.8708 31.7565 74.3928 31.2158C74.9112 30.6788 75.2761 29.9452 75.5028 29.037L74.9206 28.8917ZM72.3376 31.6003C71.6556 31.6983 71.0435 31.5323 70.4835 31.092L70.1126 31.5636C70.798 32.1026 71.5741 32.3162 72.423 32.1942L72.3376 31.6003ZM70.4853 31.0934C69.3958 30.2231 68.6748 28.7515 68.3676 26.6146L67.7737 26.7C68.0926 28.9183 68.8566 30.5603 70.1108 31.5622L70.4853 31.0934ZM68.3676 26.6146C68.2321 25.6725 68.1981 24.9674 68.2535 24.4855L67.6574 24.4169C67.5931 24.976 67.6359 25.7416 67.7737 26.7L68.3676 26.6146ZM68.2535 24.4855C68.2829 24.2294 68.3133 24.0227 68.3441 23.8632C68.376 23.6986 68.4051 23.6023 68.4259 23.5562L67.8791 23.3094C67.8284 23.4217 67.7889 23.5744 67.7551 23.7493C67.7202 23.9293 67.6878 24.1525 67.6574 24.4169L68.2535 24.4855ZM68.4305 23.5455C68.4903 23.3982 68.5687 23.2594 68.6666 23.1287L68.1862 22.7691C68.0581 22.9403 67.954 23.1241 67.8745 23.3201L68.4305 23.5455ZM68.6666 23.1287C68.7323 23.0408 68.7839 23.0267 68.8325 23.0278L68.8459 22.428C68.5701 22.4218 68.3465 22.555 68.1862 22.7691L68.6666 23.1287ZM68.8362 23.0279C68.9804 23.0293 69.1622 23.0551 69.3851 23.1115L69.5322 22.5298C69.2799 22.466 69.0486 22.4299 68.8421 22.4279L68.8362 23.0279ZM86.2939 29.3105L86.5389 29.4838L86.7891 29.1299L86.3698 29.0203L86.2939 29.3105ZM84.1385 29.0749L84.3909 28.9128L84.1385 29.0749ZM83.3247 26.9289L83.03 26.985L83.0309 26.9895L83.3247 26.9289ZM82.8698 24.3272L83.1661 24.28L82.8698 24.3272ZM82.3332 22.1413L82.0499 22.2402L82.0521 22.2461L82.3332 22.1413ZM80.5009 22.7483L80.2092 22.6784L80.2082 22.6824L80.5009 22.7483ZM80.2264 25.6165L80.5264 25.6125L80.5264 25.6124L80.2264 25.6165ZM79.8434 30.5412L80.0144 30.7877L80.0544 30.7599L80.0836 30.721L79.8434 30.5412ZM78.8113 30.8108L78.5313 30.9185L78.5919 31.076L78.7579 31.106L78.8113 30.8108ZM77.3744 24.6122L77.0783 24.6602L77.0787 24.6628L77.3744 24.6122ZM76.8825 21.7531L76.6822 21.5298L76.5538 21.6448L76.5886 21.8137L76.8825 21.7531ZM78.0389 21.3646L78.329 21.2879L78.2802 21.1033L78.0923 21.0694L78.0389 21.3646ZM78.6389 24.8345L78.342 24.8772L78.3423 24.8794L78.6389 24.8345ZM79.1141 27.8577L78.8196 27.9151L79.4128 27.8849L79.1141 27.8577ZM79.158 26.4774L78.8581 26.4696L78.858 26.4758L79.158 26.4774ZM79.216 24.9132L79.5156 24.9295L79.5156 24.9277L79.216 24.9132ZM79.3872 23.4338L79.0912 23.3847L79.3872 23.4338ZM79.7762 22.0644L80.047 22.1936L80.0494 22.1885L79.7762 22.0644ZM80.5277 21.1077L80.7184 21.3395L80.7242 21.3344L80.5277 21.1077ZM83.1922 21.2297L82.944 21.3985L82.949 21.4053L83.1922 21.2297ZM83.9662 23.24L84.2617 23.1879L83.9662 23.24ZM84.3702 25.7683L84.0732 25.811L84.0739 25.8155L84.3702 25.7683ZM85.0257 28.0785L84.7509 28.1991L84.7531 28.2038L85.0257 28.0785ZM86.049 29.1373C85.8879 29.3651 85.7041 29.4762 85.4937 29.5064L85.5791 30.1003C85.9757 30.0433 86.297 29.8258 86.5389 29.4838L86.049 29.1373ZM85.4937 29.5064C85.2662 29.5392 85.0721 29.5061 84.8999 29.4164C84.7246 29.3251 84.5527 29.1646 84.3909 28.9128L83.8861 29.2371C84.0887 29.5525 84.332 29.7971 84.6226 29.9485C84.9165 30.1016 85.2391 30.1492 85.5791 30.1003L85.4937 29.5064ZM84.3909 28.9128C84.0514 28.3845 83.7913 27.7062 83.6185 26.8683L83.0309 26.9895C83.2142 27.8785 83.4966 28.6309 83.8861 29.2371L84.3909 28.9128ZM83.6194 26.8728C83.4552 26.0104 83.304 25.1461 83.1661 24.28L82.5735 24.3744C82.7124 25.2465 82.8646 26.1167 83.03 26.985L83.6194 26.8728ZM83.1661 24.28C83.0256 23.3984 82.8427 22.649 82.6143 22.0365L82.0521 22.2461C82.2623 22.8098 82.4371 23.5177 82.5735 24.3744L83.1661 24.28ZM82.6164 22.0424C82.5066 21.7279 82.3674 21.4636 82.1832 21.2822C81.9876 21.0898 81.7423 20.9937 81.4667 21.0333L81.5521 21.6272C81.6196 21.6175 81.6832 21.632 81.7622 21.7098C81.8526 21.7988 81.9537 21.9647 82.05 22.2402L82.6164 22.0424ZM81.4667 21.0333C81.1356 21.0809 80.8697 21.2748 80.6664 21.5607C80.4671 21.8409 80.3189 22.2202 80.2092 22.6784L80.7927 22.8181C80.8934 22.3974 81.0184 22.1009 81.1553 21.9085C81.2881 21.7217 81.4213 21.646 81.5521 21.6272L81.4667 21.0333ZM80.2082 22.6824C80.0052 23.5855 79.912 24.5654 79.9264 25.6206L80.5264 25.6124C80.5125 24.5973 80.6023 23.665 80.7936 22.8141L80.2082 22.6824ZM79.9264 25.6205C79.9456 27.0624 79.9232 28.185 79.8604 28.9924C79.829 29.3965 79.7879 29.7149 79.7389 29.9518C79.6873 30.2006 79.6343 30.32 79.6033 30.3614L80.0836 30.721C80.1995 30.5662 80.2726 30.3332 80.3264 30.0735C80.3827 29.8018 80.4262 29.4556 80.4586 29.0389C80.5235 28.2048 80.5457 27.0613 80.5264 25.6125L79.9264 25.6205ZM79.6724 30.2947C79.4713 30.4342 79.3197 30.4953 79.2127 30.5106L79.2981 31.1045C79.5341 31.0706 79.7746 30.954 80.0144 30.7877L79.6724 30.2947ZM79.2127 30.5106C79.062 30.5323 78.9481 30.5307 78.8647 30.5156L78.7579 31.106C78.9234 31.136 79.1055 31.1322 79.2981 31.1045L79.2127 30.5106ZM79.0913 30.7031C78.6513 29.5594 78.1763 27.5196 77.6701 24.5616L77.0787 24.6628C77.5849 27.6211 78.0678 29.7136 78.5313 30.9185L79.0913 30.7031ZM77.6705 24.5642C77.4319 23.0915 77.2669 22.1318 77.1763 21.6926L76.5886 21.8137C76.6761 22.238 76.8391 23.1843 77.0783 24.6602L77.6705 24.5642ZM77.0827 21.9765C77.3161 21.7673 77.4864 21.6865 77.598 21.6705L77.5126 21.0766C77.2283 21.1175 76.95 21.2898 76.6822 21.5298L77.0827 21.9765ZM77.598 21.6705C77.7803 21.6442 77.9057 21.6454 77.9855 21.6598L78.0923 21.0694C77.9232 21.0388 77.7262 21.0459 77.5126 21.0766L77.598 21.6705ZM77.7489 21.4413C77.8913 21.9796 78.0891 23.1187 78.342 24.8772L78.9359 24.7918C78.6839 23.0397 78.4818 21.8656 78.329 21.2879L77.7489 21.4413ZM78.3423 24.8794C78.6073 26.6285 78.7669 27.645 78.8196 27.9151L79.4085 27.8002C79.3589 27.5462 79.2018 26.5473 78.9355 24.7896L78.3423 24.8794ZM79.4128 27.8849C79.4402 27.5845 79.4548 27.1134 79.458 26.4789L78.858 26.4758C78.8549 27.1085 78.8402 27.5576 78.8153 27.8304L79.4128 27.8849ZM79.4579 26.4851C79.4743 25.8511 79.4935 25.3329 79.5156 24.9295L78.9164 24.8968C78.894 25.3081 78.8746 25.8327 78.8581 26.4696L79.4579 26.4851ZM79.5156 24.9277C79.5353 24.522 79.5906 24.0409 79.6831 23.4828L79.0912 23.3847C78.9962 23.9581 78.9374 24.4633 78.9163 24.8987L79.5156 24.9277ZM79.6831 23.4828C79.7743 22.9326 79.8979 22.5062 80.047 22.1936L79.5055 21.9353C79.3234 22.3169 79.1875 22.8034 79.0912 23.3847L79.6831 23.4828ZM80.0494 22.1885C80.1922 21.8741 80.4127 21.5909 80.7183 21.3394L80.3371 20.8761C79.9682 21.1796 79.6877 21.5342 79.5031 21.9403L80.0494 22.1885ZM80.7242 21.3344C81.0138 21.0834 81.3583 20.9277 81.7663 20.869L81.6809 20.2751C81.1652 20.3493 80.7124 20.5507 80.3312 20.881L80.7242 21.3344ZM81.7663 20.869C82.0299 20.8311 82.2486 20.8607 82.4334 20.9434C82.6185 21.0263 82.79 21.1718 82.9441 21.3984L83.4403 21.0611C83.2356 20.7601 82.9831 20.5321 82.6786 20.3958C82.3738 20.2593 82.0377 20.2238 81.6809 20.2751L81.7663 20.869ZM82.949 21.4053C83.2853 21.8712 83.5302 22.495 83.6708 23.2921L84.2617 23.1879C84.1103 22.3297 83.8392 21.6134 83.4354 21.0541L82.949 21.4053ZM83.6708 23.2921C83.8162 24.1166 83.9503 24.9562 84.0732 25.811L84.6671 25.7256C84.5433 24.8647 84.4082 24.0188 84.2617 23.1879L83.6708 23.2921ZM84.0739 25.8155C84.2139 26.6928 84.4388 27.4881 84.751 28.1991L85.3004 27.9579C85.0117 27.3005 84.7996 26.5556 84.6664 25.721L84.0739 25.8155ZM84.7531 28.2038C85.0897 28.9362 85.5704 29.4315 86.2181 29.6008L86.3698 29.0203C85.9538 28.9115 85.5889 28.5855 85.2983 27.9532L84.7531 28.2038Z" fill="#0C0C0C" mask="url(#path-2-outside-1_91_139)"/>
</g>
<defs>
<filter id="filter0_d_91_139" x="38.132" y="0.815686" width="61.8766" height="54.2491" filterUnits="userSpaceOnUse" color-interpolation-filters="sRGB">
<feFlood flood-opacity="0" result="BackgroundImageFix"/>
<feColorMatrix in="SourceAlpha" type="matrix" values="0 0 0 0 0 0 0 0 0 0 0 0 0 0 0 0 0 0 127 0" result="hardAlpha"/>
<feOffset dx="1" dy="1"/>
<feGaussianBlur stdDeviation="5.6"/>
<feComposite in2="hardAlpha" operator="out"/>
<feColorMatrix type="matrix" values="0 0 0 0 0 0 0 0 0 0 0 0 0 0 0 0 0 0 0.08 0"/>
<feBlend mode="normal" in2="BackgroundImageFix" result="effect1_dropShadow_91_139"/>
<feBlend mode="normal" in="SourceGraphic" in2="effect1_dropShadow_91_139" result="shape"/>
</filter>
<clipPath id="clip0_91_139">
<rect width="36" height="27" fill="white" transform="translate(48.332 16.1396) rotate(-8.18278)"/>
</clipPath>
</defs>
</svg>
