<svg width="35" height="35" viewBox="0 0 35 35" fill="none" xmlns="http://www.w3.org/2000/svg">
<g clip-path="url(#clip0_150_169)">
<path fill-rule="evenodd" clip-rule="evenodd" d="M17.3688 0.251465C7.80102 0.251465 0.0664062 8.0431 0.0664062 17.6824C0.0664062 25.3876 5.02224 31.9099 11.8973 34.2184C12.7569 34.3919 13.0717 33.8433 13.0717 33.3818C13.0717 32.9777 13.0434 31.5926 13.0434 30.1494C8.23027 31.1885 7.22798 28.0715 7.22798 28.0715C6.45448 26.0513 5.3084 25.5321 5.3084 25.5321C3.73308 24.4643 5.42315 24.4643 5.42315 24.4643C7.17061 24.5798 8.08754 26.2536 8.08754 26.2536C9.63418 28.9084 12.1264 28.1583 13.1291 27.6964C13.2722 26.5709 13.7308 25.7917 14.2178 25.3589C10.379 24.9548 6.34009 23.4542 6.34009 16.7588C6.34009 14.8541 7.02717 13.2957 8.11587 12.0838C7.9441 11.651 7.34238 9.86138 8.288 7.46616C8.288 7.46616 9.74893 7.00433 13.043 9.25541C14.4533 8.87385 15.9078 8.67975 17.3688 8.67812C18.8297 8.67812 20.319 8.88035 21.6942 9.25541C24.9887 7.00433 26.4496 7.46616 26.4496 7.46616C27.3952 9.86138 26.7931 11.651 26.6214 12.0838C27.7387 13.2957 28.3975 14.8541 28.3975 16.7588C28.3975 23.4542 24.3586 24.9258 20.4911 25.3589C21.1215 25.9072 21.6655 26.946 21.6655 28.5911C21.6655 30.9285 21.6372 32.8046 21.6372 33.3815C21.6372 33.8433 21.9524 34.3919 22.8116 34.2187C29.6867 31.9096 34.6425 25.3876 34.6425 17.6824C34.6708 8.0431 26.9079 0.251465 17.3688 0.251465Z" fill="black"/>
</g>
<defs>
<clipPath id="clip0_150_169">
<rect width="34.7083" height="34" fill="white" transform="translate(0 0.251465)"/>
</clipPath>
</defs>
</svg>
