<svg width="168" height="100" viewBox="0 0 168 100" fill="none" xmlns="http://www.w3.org/2000/svg">
<g clip-path="url(#clip0_90_959)">
<g filter="url(#filter0_d_90_959)">
<path d="M96.189 41.0343L96.0145 40.5335C96.5688 40.213 97.0443 39.9344 97.2944 39.7861C97.2945 39.786 97.2946 39.786 97.2947 39.7859L97.4324 40.0181L96.189 41.0343ZM96.189 41.0343C104.116 39.8676 115.398 41.5725 124.642 46.299L124.765 46.0587M96.189 41.0343L124.765 46.0587M124.204 47.155C134.726 52.5348 142.561 61.9092 139.16 75.4864M124.204 47.155L139.16 75.4864M124.204 47.155C113.588 41.7275 100.225 40.3245 92.6455 42.8288L124.204 47.155ZM139.16 75.4864C139.078 75.8164 139.279 76.151 139.608 76.2341C139.938 76.3161 140.272 76.1154 140.354 75.7854C143.917 61.5594 135.789 51.6947 124.765 46.0587M139.16 75.4864L139.422 75.5515C139.422 75.5516 139.422 75.5517 139.422 75.5518C139.376 75.7372 139.489 75.9254 139.673 75.9723C139.859 76.0181 140.046 75.9049 140.092 75.7203L140.092 75.7199C141.857 68.6746 140.725 62.7256 137.798 57.8395C134.867 52.9464 130.124 49.1017 124.642 46.299L124.765 46.0587M96.9397 39.1921C97.3029 38.9757 97.8212 38.7057 98.4408 38.384L98.4992 38.3537C99.102 38.0407 99.7914 37.6828 100.506 37.2873C101.978 36.4727 103.576 35.4891 104.766 34.3899C105.44 33.7689 106.013 33.0919 106.288 32.3658C106.57 31.6213 106.534 30.8374 106.012 30.0509L96.9397 39.1921ZM96.9397 39.1921C96.9397 39.1921 96.9396 39.1921 96.9396 39.1921L96.8015 38.9602L96.9397 39.1921ZM83.3219 36.3769L83.322 36.3769C83.4546 36.5132 83.6731 36.5167 83.8103 36.383L83.8105 36.3829C84.9149 35.3091 87.5682 33.5852 90.6797 32.0266C93.7954 30.466 97.4138 29.0491 100.46 28.6129L100.461 28.6129C101.649 28.4428 102.768 28.4086 103.721 28.6099C104.68 28.8122 105.485 29.2566 106.012 30.0508L83.3219 36.3769ZM83.3219 36.3769C83.1886 36.24 83.1914 36.0214 83.3291 35.8874L83.3219 36.3769Z" fill="black" stroke="black" stroke-width="0.539887"/>
<path d="M139.919 75.7153L139.594 75.0214C139.453 74.7213 139.315 74.4218 139.178 74.1236C138.71 73.105 138.247 72.1002 137.697 71.1292L137.697 71.1291C135.8 67.7829 133.124 64.7149 129.882 62.6482C129.72 62.5456 129.507 62.5935 129.404 62.7536C129.301 62.9158 129.349 63.1292 129.51 63.2319C132.673 65.2461 135.261 68.2355 137.094 71.4702L137.094 71.4703C137.65 72.4507 138.121 73.4771 138.588 74.4927C138.816 74.9893 139.043 75.4833 139.278 75.9681C139.278 75.9684 139.278 75.9687 139.278 75.969L139.035 76.0868C139.043 76.1015 139.06 76.1392 139.084 76.1912C139.182 76.4016 139.388 76.8459 139.469 76.944L139.919 75.7153ZM139.919 75.7153L140.101 74.9707C140.393 73.7722 140.798 72.1224 140.885 71.837L140.885 71.8361C142.21 67.4349 144.104 63.4994 146.08 59.3945C146.332 58.8716 146.585 58.346 146.838 57.8164C146.921 57.6437 147.127 57.5711 147.298 57.653C147.469 57.735 147.543 57.9422 147.461 58.1159L139.919 75.7153ZM140.54 76.2208C140.43 76.5448 140.312 76.7283 140.258 76.7848L141.546 72.0362C141.546 72.0362 141.546 72.0362 141.546 72.0362C141.499 72.1933 141.407 72.6208 141.293 73.1473C141.242 73.3847 141.186 73.6423 141.128 73.9043C140.938 74.7659 140.721 75.6911 140.54 76.22L140.54 76.2208Z" fill="black" stroke="black" stroke-width="0.539887"/>
</g>
</g>
<path d="M14.8312 33.1501C14.3579 33.9056 15.0359 36.0704 15.9932 36.8681C16.7275 37.4647 17.2708 37.1911 17.4138 36.1437C17.5782 35.0398 16.7693 33.4727 15.8486 33.0788C15.147 32.771 15.0625 32.7865 14.8312 33.1501Z" fill="black"/>
<path d="M8.51091 33.6526C8.03763 34.408 8.71563 36.5728 9.67287 37.3705C10.4072 37.9671 10.9505 37.6935 11.0935 36.6462C11.2579 35.5422 10.449 33.9752 9.52826 33.5813C8.82669 33.2734 8.74223 33.289 8.51091 33.6526Z" fill="black"/>
<path d="M5.83499 39.7932C6.02904 40.9891 8.24943 43.1914 10.2233 44.1285C10.832 44.4324 11.8821 44.6498 12.8104 44.6897C14.2683 44.7427 14.4753 44.6941 16.3586 43.8267C18.1657 42.9944 18.445 42.7957 19.3117 41.789C20.4158 40.486 21.4704 37.6868 21.1356 36.9062C20.8426 36.2232 20.4172 36.5593 19.565 38.2371C18.6215 40.0738 18.0957 40.7599 16.9977 41.546C15.9484 42.2863 13.986 42.863 12.7518 42.8004C11.2855 42.7279 8.52866 41.2401 7.02964 39.7104C6.26642 38.9402 5.70715 38.9641 5.83499 39.7932Z" fill="black"/>
<g filter="url(#filter1_d_90_959)">
<path d="M30.8112 41.0486L29.0641 29.6006L32.4414 28.1389L39.592 37.248L37.595 38.1123L36.0583 36.0926L32.3874 37.6814L32.8082 40.1842L30.8112 41.0486ZM32.0672 35.693L34.8277 34.4982L31.4124 30.0313L31.1481 30.1457L32.0672 35.693ZM40.8223 36.7155L36.3735 26.437L40.8373 24.5049C41.4834 24.2252 42.095 24.0942 42.6721 24.1117C43.2492 24.1293 43.7589 24.2864 44.2011 24.5832C44.6434 24.8799 44.9853 25.3073 45.2268 25.8652L45.303 26.0414C45.57 26.6581 45.6392 27.2209 45.5108 27.7298C45.3824 28.2387 45.1409 28.6745 44.7865 29.0371L44.9009 29.3014C45.3009 29.1515 45.6637 29.1572 45.9892 29.3185C46.3105 29.47 46.5601 29.7513 46.7381 30.1625L48.1935 33.525L46.2552 34.3639L44.9206 31.2804C44.8189 31.0455 44.6726 30.8821 44.4818 30.7904C44.3008 30.6944 44.0684 30.7078 43.7845 30.8307L41.0827 32.0001L42.7605 35.8765L40.8223 36.7155ZM40.32 30.238L42.64 29.2339C43.1001 29.0347 43.4045 28.7577 43.5531 28.4028C43.7072 28.0339 43.6953 27.6439 43.5173 27.2328L43.4538 27.0859C43.2758 26.6748 43.0066 26.4019 42.6462 26.2674C42.2815 26.123 41.8642 26.1525 41.3944 26.3559L39.0744 27.3601L40.32 30.238ZM54.1535 31.1895C53.3116 31.5538 52.5215 31.7156 51.7833 31.6749C51.0506 31.6201 50.3998 31.3787 49.831 30.9508C49.2678 30.5088 48.8167 29.8962 48.4777 29.1131L45.5924 22.4468L47.5306 21.6078L50.4414 28.3329C50.7126 28.9594 51.1027 29.3775 51.6119 29.5872C52.1309 29.7926 52.7281 29.7491 53.4035 29.4568C54.079 29.1644 54.5145 28.7609 54.7101 28.2462C54.9156 27.7272 54.8827 27.1545 54.6115 26.528L51.7007 19.8029L53.639 18.964L56.5244 25.6303C56.8633 26.4134 56.9963 27.1637 56.9232 27.8811C56.8557 28.5844 56.5863 29.2241 56.1149 29.8C55.6492 30.3619 54.9953 30.8251 54.1535 31.1895ZM59.9655 28.4298L55.5166 18.1513L59.2022 16.556L65.1201 24.6296L65.3844 24.5152L61.5075 15.5582L63.4164 14.732L67.8652 25.0105L64.1797 26.6058L58.2618 18.5322L57.9975 18.6466L61.8743 27.6036L59.9655 28.4298Z" fill="black"/>
</g>
<defs>
<filter id="filter0_d_90_959" x="82.4142" y="27.5225" width="65.3504" height="51.8252" filterUnits="userSpaceOnUse" color-interpolation-filters="sRGB">
<feFlood flood-opacity="0" result="BackgroundImageFix"/>
<feColorMatrix in="SourceAlpha" type="matrix" values="0 0 0 0 0 0 0 0 0 0 0 0 0 0 0 0 0 0 127 0" result="hardAlpha"/>
<feOffset dx="-0.539887" dy="2.15955"/>
<feComposite in2="hardAlpha" operator="out"/>
<feColorMatrix type="matrix" values="0 0 0 0 0 0 0 0 0 0 0 0 0 0 0 0 0 0 1 0"/>
<feBlend mode="normal" in2="BackgroundImageFix" result="effect1_dropShadow_90_959"/>
<feBlend mode="normal" in="SourceGraphic" in2="effect1_dropShadow_90_959" result="shape"/>
</filter>
<filter id="filter1_d_90_959" x="26.3623" y="14.732" width="41.5918" height="28.6817" filterUnits="userSpaceOnUse" color-interpolation-filters="sRGB">
<feFlood flood-opacity="0" result="BackgroundImageFix"/>
<feColorMatrix in="SourceAlpha" type="matrix" values="0 0 0 0 0 0 0 0 0 0 0 0 0 0 0 0 0 0 127 0" result="hardAlpha"/>
<feOffset dy="2.15955"/>
<feComposite in2="hardAlpha" operator="out"/>
<feColorMatrix type="matrix" values="0 0 0 0 0.906944 0 0 0 0 0.906944 0 0 0 0 0.906944 0 0 0 0.32 0"/>
<feBlend mode="normal" in2="BackgroundImageFix" result="effect1_dropShadow_90_959"/>
<feBlend mode="normal" in="SourceGraphic" in2="effect1_dropShadow_90_959" result="shape"/>
</filter>
<clipPath id="clip0_90_959">
<rect width="70.1852" height="70.1852" fill="white" transform="translate(115.989) rotate(42.6258)"/>
</clipPath>
</defs>
</svg>
