<svg width="52" height="53" viewBox="0 0 52 53" fill="none" xmlns="http://www.w3.org/2000/svg">
<g filter="url(#filter0_d_90_933)">
<rect x="1.24106" y="0.970108" width="48.5958" height="48.5958" rx="24.2979" fill="#FFDC58" stroke="black" stroke-width="1.07977"/>
<path fill-rule="evenodd" clip-rule="evenodd" d="M24.8873 40.1474C24.887 40.1425 24.8831 40.1387 24.8782 40.1386C24.2462 40.1228 23.5994 40.0611 22.9629 39.8827C22.7303 39.8176 22.4926 39.7535 22.2691 39.6454C21.8754 39.4581 21.5095 39.1903 21.2216 38.8573C21.0762 38.6885 20.9517 38.5193 20.8403 38.3189C20.7235 38.1185 20.6553 37.8859 20.6281 37.6527C20.6006 37.4449 20.6228 37.2311 20.6738 37.0294C20.7292 36.827 20.8278 36.6427 20.943 36.4742C21.2521 36.05 21.776 35.7959 22.2651 35.8425C22.4185 35.8523 22.3967 35.9315 22.2983 36.0516C22.1932 36.158 22.0516 36.3749 21.8942 36.4937C21.7428 36.5964 21.6552 36.7511 21.5575 36.8683C21.4672 36.9961 21.4092 37.1364 21.3833 37.2791C21.3447 37.4194 21.3377 37.5701 21.3676 37.7268C21.3984 37.8829 21.476 38.0383 21.5814 38.2219C21.7096 38.4257 21.8861 38.6029 22.0899 38.7475C22.2973 38.8885 22.5289 38.9979 22.7675 39.0936C23.2952 39.3027 23.8886 39.394 24.4881 39.4319C24.8583 39.4531 25.2342 39.4584 25.6041 39.4373C26.1656 39.4044 26.7319 39.3346 27.2638 39.1698C27.6807 39.0533 28.0667 38.8754 28.4349 38.6727C28.5168 38.6287 28.593 38.5797 28.6729 38.5324C28.9696 38.3565 29.081 38.3246 29.216 38.373C29.2462 38.3837 29.2807 38.3897 29.3049 38.4035C29.3811 38.4411 29.3247 38.6119 29.1196 38.8066C28.8139 39.0906 28.4567 39.3423 28.0681 39.5444C27.8734 39.6437 27.6733 39.7404 27.4652 39.8142C27.2551 39.8803 27.041 39.9361 26.8252 39.9797C26.188 40.114 25.5362 40.1572 24.8966 40.1563C24.8917 40.1563 24.8876 40.1524 24.8873 40.1474Z" fill="#231F20"/>
<path fill-rule="evenodd" clip-rule="evenodd" d="M26.6197 40.386C26.6189 40.3835 26.6163 40.3822 26.6138 40.3828C26.2712 40.4735 25.9226 40.5383 25.573 40.5918C25.4438 40.6092 25.3173 40.626 25.1877 40.6435C24.7312 40.6763 24.2721 40.6663 23.8196 40.6028C23.6182 40.5763 23.4175 40.5407 23.2195 40.4988C22.9684 40.4354 22.7046 40.3709 22.4905 40.2058C22.4223 40.1574 22.4764 40.0953 22.573 40.0571C22.6721 40.0171 22.7996 40.0074 22.9271 40.048C23.3729 40.2152 23.8616 40.2904 24.3627 40.3343C24.6641 40.3571 24.9793 40.3239 25.2857 40.2796C25.6247 40.241 25.9611 40.1712 26.2943 40.088C26.4998 40.039 26.7015 39.9715 26.9035 39.9091L27.3587 39.7476C27.5074 39.6872 27.6551 39.6231 27.8007 39.557C28.0236 39.4469 28.2307 39.3166 28.4465 39.2008L28.5858 39.1193C28.7637 39.023 28.8342 39.0156 28.9033 39.0448C28.9191 39.0518 28.9376 39.0565 28.9496 39.0652C28.9896 39.0931 28.9396 39.1703 28.8238 39.2717C28.4824 39.5758 28.0706 39.8262 27.6312 40.0218C27.3101 40.1756 26.9706 40.294 26.6257 40.3891C26.6232 40.3898 26.6206 40.3885 26.6197 40.386Z" fill="#231F20"/>
<path fill-rule="evenodd" clip-rule="evenodd" d="M27.2854 42.5427C27.288 42.5448 27.2917 42.5447 27.2942 42.5425C27.4014 42.4498 27.4934 42.3192 27.5778 42.1824C27.6107 42.1331 27.6228 42.0703 27.6537 42.0179C27.7591 41.8276 27.852 41.6219 27.9444 41.4091C27.9887 41.3165 28.0209 41.2174 28.0571 41.1188C28.1061 40.9936 28.1377 40.8512 28.2787 40.7489C28.3189 40.7173 28.3652 40.7804 28.4075 40.857C28.4478 40.9378 28.4968 41.005 28.4841 41.0701C28.423 41.2802 28.3965 41.5527 28.2451 41.7887C28.1632 41.9324 28.1296 42.1032 28.0565 42.2603C27.9789 42.4335 27.8749 42.6003 27.7584 42.7587C27.6745 42.85 27.601 42.947 27.4989 43.0229C27.4259 43.0823 27.3475 43.1347 27.2647 43.1794L27.263 43.1803C27.1824 43.232 27.0918 43.2582 27.0039 43.2914C26.9364 43.3226 26.8689 43.3438 26.7988 43.3632C26.73 43.3813 26.6575 43.4142 26.5863 43.4199C26.5551 43.424 26.5242 43.4246 26.4923 43.422C26.3745 43.4072 26.34 43.3716 26.3312 43.2531C26.3289 43.228 26.3252 43.2034 26.3252 43.1806C26.3255 43.1088 26.3789 43.0185 26.4474 42.986C26.6571 42.8819 26.8132 42.8477 26.9659 42.7732C27.0664 42.7071 27.1815 42.6523 27.2757 42.5437C27.2782 42.5408 27.2824 42.5404 27.2854 42.5427Z" fill="#231F20"/>
<path fill-rule="evenodd" clip-rule="evenodd" d="M22.0081 36.6278C22.0053 36.6238 22.0001 36.6223 21.9956 36.6242C21.913 36.6582 21.8165 36.6962 21.7328 36.7609C21.7019 36.7854 21.6835 36.8204 21.6526 36.8455C21.5398 36.9338 21.4287 37.0372 21.3468 37.1594C21.3166 37.2131 21.2978 37.2765 21.3015 37.3319C21.2995 37.4108 21.3277 37.453 21.2693 37.5138C21.2485 37.5343 21.1189 37.595 20.9743 37.6105C20.8346 37.634 20.652 37.5672 20.6376 37.4745C20.5997 37.3087 20.6322 37.1637 20.6829 37.0429C20.7319 36.919 20.8078 36.8173 20.8991 36.7314C21.0105 36.6331 21.0599 36.4978 21.1572 36.3934C21.2653 36.2813 21.3848 36.1809 21.521 36.0987C21.6009 36.0453 21.6956 36.0091 21.7849 35.9692C21.9251 35.9106 22.0786 35.885 22.2302 35.8735C22.232 35.8734 22.2338 35.8733 22.2356 35.8732C22.297 35.8722 22.3598 35.8574 22.4239 35.8547C22.4867 35.8577 22.5531 35.8611 22.6189 35.8718C22.6491 35.8738 22.6713 35.8903 22.6955 35.9054C22.7794 35.9718 22.7814 36.0299 22.7213 36.1497C22.7075 36.1773 22.6948 36.2044 22.6793 36.23C22.6277 36.3139 22.5501 36.3736 22.49 36.4058C22.3034 36.5112 22.2937 36.5421 22.2148 36.5606C22.1656 36.5716 22.0949 36.5932 22.0216 36.6311C22.0169 36.6335 22.0112 36.6322 22.0081 36.6278Z" fill="#231F20"/>
<path fill-rule="evenodd" clip-rule="evenodd" d="M16.2441 30.9838C16.2459 30.9818 16.2459 30.9788 16.2441 30.9768C15.4411 30.0454 14.7176 29.0366 14.139 27.9437C14.0272 27.7474 13.9302 27.5433 13.8349 27.3382C13.7339 27.1358 13.6429 26.9294 13.5654 26.7166C12.9733 25.2364 12.7313 23.6203 12.8494 22.0404C12.8686 21.6893 12.927 21.3406 12.9693 20.9918C13.0444 20.6488 13.0864 20.2984 13.1854 19.9641C13.3831 19.0951 13.7208 18.2312 14.244 17.5015C14.4085 17.2749 14.4233 17.3333 14.3434 17.5578C14.2601 17.7824 14.1205 18.1889 13.9352 18.65C13.8533 18.8551 13.7808 19.0642 13.7161 19.275C13.6506 19.4848 13.6063 19.7056 13.5439 19.9184C13.4828 20.1326 13.4277 20.3477 13.3912 20.5672C13.3529 20.7861 13.2952 21.0019 13.272 21.2231C13.1317 22.1018 13.1213 22.9987 13.2069 23.8898C13.3086 24.9588 13.6415 26.0426 14.1061 27.0388C14.6112 28.1387 15.2584 29.1776 16.0193 30.1305C16.4814 30.7215 16.9812 31.2851 17.5068 31.8228C18.2993 32.6418 19.1495 33.4138 20.0161 34.1451C20.6904 34.714 21.3765 35.2407 22.0548 35.7938C22.2035 35.9167 22.3532 36.0315 22.4982 36.162C23.041 36.6386 23.1876 36.8239 23.2414 36.9894C23.2541 37.0266 23.2756 37.0709 23.2786 37.0965C23.2873 37.1837 23.045 37.0159 22.6399 36.6863C21.4299 35.7173 20.1198 34.7137 18.8746 33.6131C17.9521 32.7958 17.0573 31.9313 16.2442 30.9909C16.2424 30.9889 16.2424 30.9859 16.2441 30.9838Z" fill="#231F20"/>
<path fill-rule="evenodd" clip-rule="evenodd" d="M14.6352 16.8642C14.6407 16.8666 14.6472 16.8649 14.6508 16.8601C15.1778 16.1576 15.7979 15.5394 16.4742 14.9967C17.169 14.4738 17.9128 14.0234 18.6986 13.6626C20.2754 12.9617 21.9966 12.5798 23.7299 12.6341C24.3623 12.6536 24.9933 12.7264 25.6035 12.8476C25.9109 12.9084 26.2174 12.9815 26.5211 13.0711C26.8249 13.1591 27.1219 13.2876 27.4207 13.3974C28.4558 13.8498 29.3768 14.5466 30.1112 15.3881C30.8489 16.2292 31.4051 17.2087 31.7864 18.2394C32.5611 20.303 32.7098 22.5431 32.4211 24.6831C32.3056 25.6367 32.1029 26.5775 31.8525 27.5002C31.6105 28.4266 31.2927 29.3268 30.955 30.2106C30.5197 31.3464 29.9974 32.4493 29.4151 33.517C28.8374 34.5874 28.1809 35.6128 27.4683 36.5912C27.0216 37.2004 26.9994 37.0587 27.2518 36.464C27.3811 36.1689 27.5636 35.7514 27.7969 35.259C28.0218 34.7616 28.3004 34.1913 28.6186 33.5835C29.1858 32.5064 29.6715 31.3924 30.1364 30.2753C30.5915 29.1536 30.9802 28.0064 31.2735 26.837C31.8656 24.5042 32.0485 22.0527 31.4847 19.7136C31.3128 19.0185 31.0715 18.3334 30.7533 17.6823C30.4338 17.0314 30.0199 16.4266 29.5369 15.8879C29.0522 15.3512 28.4927 14.8773 27.8607 14.5268C27.2297 14.1758 26.5594 13.9069 25.8451 13.7414C22.7203 12.9594 19.2369 13.7726 16.734 15.8275C15.9691 16.4605 15.3042 17.2177 14.8162 18.078C14.7067 18.2992 14.5893 18.5173 14.4849 18.7405L14.2281 19.4347C14.0999 19.918 13.9663 20.402 13.9012 20.8987L13.8545 21.179L13.831 21.4623L13.7861 22.0292L13.7898 22.5981L13.7928 22.8824L13.8193 23.166C13.8646 23.9253 14.0398 24.6714 14.2553 25.4008C14.4755 26.1311 14.7933 26.8289 15.139 27.5093C15.5009 28.1823 15.911 28.8284 16.3571 29.4476C17.7594 31.3702 19.486 32.9676 21.2562 34.5313C21.6476 34.876 22.0376 35.2053 22.4273 35.5638C23.8749 36.8778 24.2683 37.4548 24.3438 37.922C24.3602 38.0288 24.378 38.1627 24.3693 38.2234C24.3606 38.2761 24.3277 38.2711 24.2713 38.2238C24.2122 38.1761 24.1508 38.0838 24.0253 37.965C23.7947 37.724 23.4114 37.3487 22.8807 36.8832C21.2904 35.5181 19.5793 34.1299 18.0142 32.5238C16.4521 30.9235 14.99 29.1033 14.0291 26.9645C13.6709 26.1738 13.4028 25.337 13.2168 24.4801C13.0272 23.6218 12.9788 22.7341 13.006 21.855C13.0386 20.9726 13.2138 20.1059 13.4424 19.2605C13.7075 18.4046 14.1104 17.5967 14.6194 16.8686C14.623 16.8636 14.6296 16.8617 14.6352 16.8642Z" fill="#231F20"/>
<path fill-rule="evenodd" clip-rule="evenodd" d="M23.3239 39.5905C23.3234 39.5955 23.3268 39.6 23.3318 39.6009C24.1848 39.7559 25.0916 39.7297 25.9807 39.5849C26.3039 39.5282 26.6315 39.4382 26.945 39.3694C27.4723 39.2328 28.0097 38.9817 28.5001 38.6907C28.9894 38.395 29.4459 38.0329 29.7641 37.5928C30.0323 37.1961 30.095 36.7205 29.8571 36.3308C29.709 36.0834 29.4607 35.8794 29.1928 35.7119C28.9193 35.5508 28.6276 35.4041 28.3175 35.2937C28.1248 35.2289 28.1537 35.1658 28.352 35.1094C28.5434 35.0658 28.9371 35.0043 29.3382 35.1832C29.6882 35.3396 30.0329 35.5518 30.3122 35.8928C30.3832 35.9746 30.4403 36.0684 30.4896 36.1678C30.5946 36.3792 30.6613 36.6095 30.6801 36.8447C30.6831 36.9615 30.663 37.0769 30.6509 37.1927C30.5623 37.6465 30.3263 38.0067 30.0705 38.3051C29.8128 38.6075 29.5093 38.8354 29.1972 39.0411C28.8226 39.2841 28.4343 39.5033 28.0278 39.6987C27.8244 39.796 27.6156 39.8856 27.3991 39.9632C27.2921 40.0038 27.1759 40.0333 27.0652 40.0679L26.7419 40.1384C25.7994 40.3481 24.8224 40.4579 23.8453 40.3757C23.2448 40.323 22.6474 40.1971 22.0785 39.9769C21.6489 39.8054 21.2437 39.5624 20.8873 39.2543C20.5359 38.9408 20.2485 38.5363 20.1066 38.0671C20.0039 37.7036 19.9884 37.2948 20.1123 36.9235C20.2398 36.5537 20.4785 36.2351 20.7631 35.9908C20.8886 35.8824 21.0158 35.783 21.1585 35.6998C21.4216 35.5444 21.6193 35.4984 21.7583 35.4809C21.8999 35.4699 21.9912 35.5021 22.0731 35.5696C22.1104 35.5994 22.1547 35.6259 22.1788 35.6575C22.2601 35.7666 22.0711 35.9237 21.76 36.12C21.2964 36.4053 20.9067 36.8004 20.8003 37.2219C20.7359 37.4321 20.7476 37.6395 20.797 37.8587C20.8567 38.0778 20.9853 38.2916 21.1424 38.491C21.6404 39.0794 22.4655 39.4334 23.3159 39.58C23.3209 39.5809 23.3244 39.5854 23.3239 39.5905Z" fill="#231F20"/>
<path fill-rule="evenodd" clip-rule="evenodd" d="M22.4304 38.0032C22.4289 38.0075 22.431 38.0122 22.4352 38.014C22.9078 38.2109 23.4331 38.3398 23.9703 38.4029C24.1677 38.4271 24.3674 38.4237 24.5664 38.4314C25.2693 38.4623 25.9879 38.4103 26.6763 38.2347C26.9807 38.1562 27.2801 38.0484 27.5544 37.9075C27.9071 37.7229 28.2142 37.4846 28.4868 37.2197C28.5734 37.1375 28.6378 37.1845 28.6499 37.3302C28.6694 37.4782 28.6083 37.7356 28.4076 37.9182C27.6953 38.5382 26.8139 38.8271 25.9365 38.9131C25.4109 38.9631 24.8689 39.0436 24.3281 39.0282C23.7357 39.0104 23.1399 38.9332 22.5663 38.7483C22.2142 38.6348 21.8699 38.4831 21.552 38.2784C21.3127 38.1216 21.0892 37.9313 20.9052 37.7024C20.8193 37.5832 20.733 37.4644 20.6689 37.3312C20.5954 37.2117 20.5417 37.0214 20.5451 36.8596C20.5488 36.5968 20.6491 36.3635 20.7777 36.1688C20.9082 35.9735 21.072 35.8083 21.261 35.6741C21.3429 35.613 21.4282 35.559 21.5221 35.513C21.8806 35.3535 22.0444 35.4153 22.125 35.5569C22.1441 35.5898 22.1666 35.6214 22.176 35.6536C22.2011 35.7627 22.085 35.8624 21.9125 35.9574C21.6493 36.096 21.4016 36.3229 21.267 36.5578C21.1996 36.674 21.17 36.7874 21.1768 36.8623C21.1778 36.9012 21.1895 36.9311 21.2046 36.9626C21.2227 37.0016 21.2731 37.0825 21.3036 37.1415C21.5383 37.5081 21.9494 37.801 22.4254 37.9923C22.4297 37.9941 22.4319 37.9988 22.4304 38.0032Z" fill="#231F20"/>
<path fill-rule="evenodd" clip-rule="evenodd" d="M24.3581 41.0742C24.3575 41.0793 24.3608 41.084 24.3657 41.0852C24.806 41.1874 25.2845 41.2027 25.7617 41.1596C25.9379 41.1476 26.1091 41.0986 26.2843 41.0697C26.9042 40.9687 27.5168 40.7757 28.1028 40.5189C28.3599 40.3994 28.6059 40.2527 28.8288 40.0859C29.1232 39.8755 29.3574 39.6147 29.5994 39.3723C29.681 39.2992 29.7538 39.3441 29.7884 39.4834C29.8045 39.5522 29.8183 39.6529 29.7978 39.7577C29.7736 39.8547 29.727 39.9617 29.6525 40.0577C29.0936 40.6807 28.3982 41.1271 27.6279 41.3624C27.1663 41.4946 26.7069 41.6869 26.2202 41.7712C25.6888 41.8675 25.1417 41.9014 24.5956 41.8467C24.2607 41.8111 23.9233 41.7316 23.6075 41.6191C23.1285 41.4433 22.6761 41.1734 22.3008 40.8217C22.0078 40.5525 21.7383 40.2497 21.5446 39.8943C21.505 39.815 21.4661 39.7372 21.4329 39.6543C21.3358 39.3378 21.3912 39.2166 21.5241 39.1186C21.5547 39.0961 21.5822 39.0699 21.6114 39.0551C21.7051 39.0058 21.8474 39.1001 21.9709 39.2723C22.1525 39.5291 22.3106 39.7711 22.4908 39.9929C22.6717 40.2141 22.8849 40.4048 23.1265 40.5662C23.4792 40.8029 23.9162 40.9763 24.3502 41.0632C24.3554 41.0642 24.3588 41.069 24.3581 41.0742Z" fill="#231F20"/>
<path fill-rule="evenodd" clip-rule="evenodd" d="M22.5015 20.4837C22.506 20.4823 22.509 20.478 22.5086 20.4733C22.4971 20.3077 22.4963 20.1379 22.5055 19.9641L22.5253 19.6919L22.5579 19.4956C22.5767 19.4248 22.6022 19.3563 22.624 19.2865C22.7173 19.0059 22.9355 18.8233 23.1939 18.7699C23.4551 18.7182 23.7273 18.8078 23.9367 18.9985C23.9874 19.0478 24.0404 19.0985 24.0824 19.1546C24.129 19.211 24.1733 19.2657 24.1925 19.3022C24.2458 19.3855 24.2881 19.4674 24.3284 19.5493C24.4083 19.7124 24.4697 19.8735 24.5248 20.034C24.6285 20.3575 24.7154 20.6932 24.7547 21.0261C24.9202 22.3583 24.7198 23.7016 24.1368 24.9082C24.0297 25.1281 23.9045 25.3409 23.7662 25.5469C23.6961 25.6507 23.6021 25.7554 23.5195 25.8581C23.4212 25.9524 23.3211 26.0487 23.2087 26.13C22.7492 26.4629 22.1336 26.5505 21.6291 26.431C21.1757 26.3381 20.7736 26.1457 20.4087 25.9161C20.0432 25.6839 19.7146 25.4137 19.4172 25.0995C19.1152 24.7753 18.8805 24.4195 18.6832 24.0416C18.4882 23.6633 18.3277 23.2635 18.2472 22.8309C18.168 22.404 18.1535 21.9243 18.3626 21.4803C18.4617 21.2644 18.5979 21.0711 18.796 20.908C18.99 20.7445 19.2612 20.6499 19.5186 20.6579C20.0409 20.6754 20.4342 20.9899 20.731 21.2769C21.0374 21.5752 21.2908 21.9136 21.5123 22.265C22.2954 23.5183 22.7331 24.924 23.1486 26.2736C23.4202 27.1453 23.6585 28.0405 23.8102 28.9547C23.8813 29.4126 23.936 29.8744 23.9501 30.3383C23.9642 30.8025 23.9404 31.266 23.8968 31.7252C23.827 32.2978 23.7424 32.2061 23.6534 31.7245C23.6044 31.4674 23.54 31.1338 23.4658 30.7464C23.3772 30.3467 23.2882 29.8862 23.2033 29.3847C23.0516 28.4952 22.7982 27.6246 22.5267 26.7479C22.2622 25.8611 21.998 24.98 21.6771 24.1409C21.3556 23.3042 20.9646 22.4835 20.401 21.8471C20.2621 21.689 20.105 21.5387 19.9576 21.4373C19.8046 21.3363 19.6411 21.2738 19.5025 21.2742C19.3635 21.2705 19.2424 21.3202 19.1249 21.4336C19.0074 21.5477 18.9077 21.7186 18.8574 21.884C18.7268 22.3033 18.8275 22.8413 19.0255 23.326C19.2226 23.8147 19.5173 24.2916 19.8761 24.6669C20.2513 25.0468 20.7028 25.3737 21.1811 25.5906C21.657 25.7967 22.1826 25.8947 22.5938 25.7023C22.821 25.6037 23.0164 25.4298 23.1778 25.2116C23.3419 24.9743 23.4869 24.7159 23.6071 24.4447C23.8407 23.8989 23.9965 23.3102 24.0626 22.7121C24.1347 22.114 24.1196 21.5054 24.0139 20.9204C23.9542 20.6307 23.8753 20.3451 23.7635 20.0719C23.7081 19.9373 23.6454 19.8084 23.5746 19.6976C23.5158 19.6053 23.4859 19.5701 23.4171 19.5308C23.3359 19.4848 23.2339 19.5335 23.2016 19.6178C23.1839 19.6574 23.1688 19.7023 23.1624 19.743C23.1476 19.8101 23.1312 19.9078 23.1281 19.9933C23.1107 20.3511 23.1513 20.7274 23.2211 21.0939C23.2919 21.4608 23.3933 21.8246 23.5349 22.1656C23.6732 22.4979 23.8615 22.8463 24.1022 23.0128C24.3012 23.1347 24.5469 23.1944 24.7829 23.1498C25.0219 23.1095 25.2565 22.9813 25.4622 22.8124C25.8714 22.4711 26.1993 21.9834 26.3564 21.4766C26.4339 21.2366 26.4363 20.9607 26.4017 20.6992C26.3641 20.4418 26.2701 20.1857 26.1161 20.0544C25.9566 19.9222 25.7975 19.9239 25.6294 20.0826C25.4602 20.2447 25.3223 20.4898 25.2182 20.7402C25.1323 20.9358 25.0823 21.1352 25.0329 21.3554C24.9776 21.5685 24.9406 21.786 24.9051 22.0032C24.8409 22.4382 24.8023 22.8762 24.7929 23.3146C24.7731 24.1913 24.8396 25.0673 24.9916 25.9309C25.0588 26.3115 25.1424 26.6801 25.2373 27.0567C25.4105 27.7562 25.5599 28.2056 25.6405 28.5308C25.725 28.8547 25.7385 29.0568 25.714 29.238C25.7025 29.3206 25.7012 29.425 25.6804 29.4804C25.6267 29.6643 25.2112 29.1783 24.8386 28.1304C24.2992 26.5797 24.0294 24.8824 24.1032 23.1534C24.1264 22.7218 24.167 22.2878 24.2395 21.8555C24.2801 21.6404 24.3042 21.4215 24.3563 21.2064L24.4274 20.8784C24.459 20.7546 24.4959 20.6432 24.5368 20.5294C24.6211 20.3042 24.7208 20.0826 24.8671 19.8587C25.0135 19.6453 25.2088 19.3825 25.6341 19.2412C25.8368 19.1952 26.0624 19.1908 26.2533 19.2838C26.4551 19.3499 26.5987 19.4734 26.7159 19.6033C26.9481 19.8698 27.0351 20.1494 27.0951 20.4099C27.1693 20.8029 27.1787 21.1631 27.079 21.5789C26.9743 21.9575 26.8082 22.2798 26.6068 22.5802C26.4034 22.8782 26.1614 23.1518 25.8616 23.3834C25.5636 23.6106 25.1917 23.8053 24.752 23.8402C24.6449 23.856 24.5315 23.8368 24.4224 23.8318C24.3133 23.818 24.2076 23.7835 24.1015 23.7559C24.0022 23.7157 23.9065 23.668 23.8108 23.621C23.7038 23.5582 23.6111 23.482 23.5336 23.4062C23.2382 23.0977 23.0865 22.7765 22.9513 22.457C22.6985 21.8171 22.5473 21.1729 22.4944 20.4941C22.494 20.4894 22.497 20.4851 22.5015 20.4837Z" fill="#231F20"/>
<path fill-rule="evenodd" clip-rule="evenodd" d="M35.8064 21.292C35.7987 21.3508 35.7212 21.3249 35.6007 21.2538C35.5621 21.2313 35.4711 21.1377 35.4681 21.1145C35.4621 21.0695 35.457 21.0249 35.4597 20.9866C35.4597 20.9635 35.6121 20.7201 35.6661 20.6345C35.7165 20.5509 35.7826 20.4835 35.8544 20.4231C35.9971 20.2962 36.1498 20.1784 36.3113 20.071C36.3472 20.0475 36.3874 20.0307 36.4304 20.0196C36.5801 19.9844 36.709 19.9183 36.8365 19.8411C36.858 19.8286 36.8829 19.8223 36.8949 19.79C36.9107 19.7316 37.2944 19.5796 37.3528 19.5866C37.4927 19.5923 37.6263 19.5853 37.7623 19.6024C37.7814 19.6048 37.7992 19.591 37.821 19.6178C37.871 19.6796 37.9073 19.6628 37.9472 19.6628C38.0019 19.6615 38.0576 19.6679 38.1133 19.686C38.1409 19.6947 38.1701 19.7306 38.1976 19.7588C38.2224 19.784 38.216 19.8847 38.2093 19.8961C38.1892 19.9293 38.2107 19.9746 38.2154 20.0159C38.2189 20.0446 38.2111 20.0716 38.1906 20.0919C38.1692 20.1132 38.138 20.142 38.1051 20.1712C38.0098 20.2557 37.8826 20.3246 37.7639 20.371C37.6706 20.408 37.5763 20.4523 37.5585 20.466C37.5193 20.4926 37.4668 20.4751 37.4255 20.4983C37.4068 20.5089 37.3854 20.5213 37.3635 20.5342C37.2592 20.5956 37.1537 20.699 37.0352 20.6741C37.0302 20.6731 37.0251 20.6717 37.0198 20.6701C37.0034 20.6657 36.9936 20.6748 36.9829 20.6815C36.8906 20.7392 36.7849 20.7738 36.6825 20.8195C36.6311 20.844 36.5872 20.8802 36.5398 20.9114C36.5311 20.9171 36.518 20.9161 36.5073 20.9188C36.4938 20.9222 36.4787 20.9232 36.4683 20.9312C36.3589 21.0098 36.2297 21.0672 36.1377 21.1709C36.1156 21.1924 35.9578 21.2424 35.9353 21.2729C35.9222 21.2887 35.8095 21.2679 35.8064 21.292Z" fill="#231F20"/>
<path fill-rule="evenodd" clip-rule="evenodd" d="M32.5731 13.8134C32.565 13.8738 32.4828 13.8462 32.3573 13.7737C32.3173 13.7506 32.2227 13.6546 32.219 13.6308C32.2119 13.5838 32.2059 13.5371 32.2072 13.4968C32.2072 13.4727 32.3532 13.2122 32.4022 13.1179C32.4485 13.0269 32.5117 12.9531 32.5801 12.886C32.7201 12.75 32.8694 12.6255 33.0178 12.506C33.051 12.4798 33.0893 12.4597 33.1316 12.4476C33.2766 12.4046 33.3927 12.3241 33.4974 12.2298C33.5149 12.214 33.537 12.2043 33.5394 12.1684C33.5454 12.1093 33.8438 11.8881 33.8922 11.877C34.0177 11.8508 34.1305 11.8065 34.2493 11.7689C34.2667 11.7646 34.2751 11.7458 34.308 11.7639C34.3846 11.8062 34.4064 11.7743 34.4399 11.7582C34.4866 11.7354 34.5346 11.7146 34.5913 11.7042C34.6195 11.6988 34.6662 11.7176 34.7074 11.729C34.745 11.7394 34.8058 11.8337 34.8071 11.8485C34.8108 11.8904 34.8592 11.92 34.89 11.9549C34.9004 11.9666 34.9142 11.9821 34.9213 11.9925C35.0798 12.205 34.6855 12.5039 34.4924 12.6856C34.4585 12.7175 34.4332 12.742 34.4252 12.7517C34.4077 12.7728 34.3748 12.7728 34.3466 12.7786C34.3332 12.7826 34.0727 13.0289 34.061 13.0336C33.9952 13.0662 33.9512 13.1286 33.8546 13.1135C33.8354 13.1105 33.8254 13.1212 33.8143 13.1303C33.719 13.2065 33.6048 13.2535 33.4968 13.3089C33.4424 13.3374 33.3984 13.3804 33.3488 13.4149C33.3397 13.4217 33.3253 13.4203 33.3142 13.4237C33.2997 13.4277 33.2833 13.4287 33.2726 13.4378C33.1645 13.5317 33.0218 13.5834 32.9265 13.6925C32.903 13.7147 32.7335 13.7633 32.71 13.7949C32.6959 13.811 32.5764 13.7885 32.5731 13.8134Z" fill="#231F20"/>
<path fill-rule="evenodd" clip-rule="evenodd" d="M28.2264 42.4968C28.2229 42.4949 28.2186 42.4958 28.2163 42.4991C28.0396 42.7506 27.8299 43.004 27.5514 43.2016C27.4456 43.2691 27.3466 43.3499 27.2245 43.3922C27.0147 43.4792 26.768 43.5013 26.5542 43.4674C26.3373 43.4345 26.141 43.3607 25.9651 43.2654C25.8087 43.1815 25.6577 43.0952 25.514 43.0022C25.423 42.9411 25.3297 42.8824 25.2455 42.8129C25.1646 42.7391 25.0965 42.6511 25.0397 42.5548C25.0052 42.4937 25.0689 42.444 25.1716 42.4152C25.4024 42.3538 25.6208 42.4878 25.8239 42.6134C26.0494 42.7529 26.2752 42.8702 26.5001 42.9569C26.7062 43.0311 26.8999 42.9744 27.0885 42.87C27.2943 42.7585 27.4772 42.5736 27.635 42.3544C27.734 42.2212 27.8222 42.0728 27.9068 41.9221C28.032 41.6905 28.1586 41.4515 28.268 41.2045C28.3512 41.0122 28.4079 40.8061 28.4989 40.6097C28.5194 40.5664 28.5348 40.5211 28.5586 40.4792C28.6567 40.3281 28.7355 40.31 28.8768 40.3681C28.9074 40.3802 28.9373 40.3885 28.9614 40.4006C29.0346 40.4355 29.1041 40.5708 29.0759 40.6879C28.9967 41.0394 28.85 41.3676 28.6744 41.715C28.5472 41.9708 28.4038 42.2319 28.2367 42.4943C28.2345 42.4977 28.2299 42.4988 28.2264 42.4968Z" fill="#231F20"/>
<path fill-rule="evenodd" clip-rule="evenodd" d="M23.6916 10.0081C23.7289 10.0608 23.6561 10.1088 23.5248 10.1528C23.4829 10.1668 23.355 10.1689 23.3352 10.1544C23.2976 10.1262 23.2597 10.098 23.2318 10.0692C23.2167 10.0507 23.114 9.76743 23.0647 9.67446C23.02 9.5835 22.9965 9.49186 22.977 9.3999C22.9381 9.21328 22.8807 9.03035 22.8482 8.84508C22.8398 8.80413 22.8408 8.76184 22.8482 8.71854C22.8753 8.56918 22.8498 8.42653 22.8018 8.28824C22.7938 8.26508 22.7931 8.23991 22.7595 8.22279C22.7465 8.21658 22.7317 8.19236 22.7167 8.1579C22.6071 7.90466 22.6606 7.61982 22.6954 7.34608C22.6978 7.32661 22.6834 7.30983 22.7122 7.28567C22.7794 7.22894 22.7555 7.1937 22.7602 7.15107C22.7613 7.13615 22.7622 7.1212 22.7634 7.10618C22.7704 7.01604 22.8176 6.93894 22.8717 6.86644C22.8951 6.83489 22.9633 6.83154 22.976 6.83724C23.0073 6.85537 23.0391 6.82617 23.068 6.81643C23.0781 6.81308 23.0912 6.80871 23.1006 6.80771C23.1161 6.80475 23.1974 6.85688 23.2795 6.91757C23.4156 7.01823 23.5031 7.1719 23.5711 7.32695C23.6235 7.4461 23.6806 7.57096 23.6953 7.5958C23.7266 7.6466 23.7062 7.7131 23.7253 7.76963C23.7638 7.88397 23.8275 8.07331 23.8272 8.08517C23.8309 8.1664 23.8715 8.24259 23.8135 8.33422C23.8024 8.35235 23.8084 8.36779 23.8121 8.3839C23.8417 8.52017 23.8316 8.66316 23.8293 8.80346C23.8279 8.87528 23.844 8.9451 23.8444 9.01659C23.8447 9.02935 23.835 9.04311 23.8309 9.05653C23.8259 9.07331 23.8175 9.09043 23.8185 9.10654C23.8303 9.27403 23.798 9.44454 23.8232 9.60968C23.8286 9.64794 23.7574 9.83489 23.7665 9.87786C23.7708 9.9027 23.6759 9.98728 23.6916 10.0081Z" fill="#231F20"/>
<path fill-rule="evenodd" clip-rule="evenodd" d="M12.8232 10.5971C12.7517 10.5877 12.7883 10.492 12.893 10.3521C12.9262 10.3074 13.0541 10.2014 13.0816 10.1967C13.135 10.1869 13.187 10.1779 13.2293 10.1769C13.2542 10.1789 13.4982 10.3084 13.5912 10.336C13.6778 10.3675 13.7482 10.4152 13.816 10.4672L14.2473 10.7683C14.2796 10.7908 14.3064 10.8206 14.3306 10.8562C14.4111 10.9804 14.5266 11.0593 14.6538 11.1204C14.675 11.1304 14.6927 11.1476 14.727 11.1351C14.781 11.1157 15.1113 11.312 15.1449 11.357C15.2247 11.4678 15.317 11.5611 15.405 11.6628C15.4177 11.6772 15.4402 11.6779 15.4375 11.7155C15.4312 11.8024 15.4714 11.8111 15.5027 11.836C15.5456 11.8709 15.5869 11.9098 15.6205 11.9605C15.6373 11.9853 15.6373 12.0374 15.6416 12.0817C15.646 12.1219 15.5741 12.2159 15.5604 12.2226C15.5201 12.2418 15.5087 12.2995 15.4855 12.3428C15.4778 12.3572 15.4674 12.376 15.4597 12.3871C15.4419 12.4106 15.072 12.4284 15.0432 12.4106C15.0398 12.4089 14.9321 12.3653 14.8173 12.318C14.7025 12.272 14.5816 12.2243 14.5548 12.2173C14.5269 12.2102 14.5125 12.1803 14.4944 12.1565C14.4867 12.1478 14.1295 12.0102 14.1171 11.9991C14.0547 11.9511 13.9708 11.933 13.9422 11.8323C13.9369 11.8125 13.9211 11.8068 13.9073 11.7997C13.7858 11.7346 13.6868 11.6352 13.5851 11.5406C13.5324 11.4929 13.47 11.4574 13.4133 11.4144C13.4032 11.4067 13.3995 11.3906 13.3921 11.3792C13.3827 11.3651 13.3767 11.3459 13.3639 11.3365C13.2297 11.2335 13.128 11.0932 12.9867 10.9948C12.9521 10.973 12.8803 10.78 12.843 10.7549C12.8205 10.7404 12.8511 10.6008 12.8232 10.5971Z" fill="#231F20"/>
</g>
<defs>
<filter id="filter0_d_90_933" x="0.701172" y="0.430222" width="50.7556" height="51.8351" filterUnits="userSpaceOnUse" color-interpolation-filters="sRGB">
<feFlood flood-opacity="0" result="BackgroundImageFix"/>
<feColorMatrix in="SourceAlpha" type="matrix" values="0 0 0 0 0 0 0 0 0 0 0 0 0 0 0 0 0 0 127 0" result="hardAlpha"/>
<feOffset dx="1.07977" dy="2.15955"/>
<feComposite in2="hardAlpha" operator="out"/>
<feColorMatrix type="matrix" values="0 0 0 0 0 0 0 0 0 0 0 0 0 0 0 0 0 0 1 0"/>
<feBlend mode="normal" in2="BackgroundImageFix" result="effect1_dropShadow_90_933"/>
<feBlend mode="normal" in="SourceGraphic" in2="effect1_dropShadow_90_933" result="shape"/>
</filter>
</defs>
</svg>
