<svg width="34" height="35" viewBox="0 0 34 35" fill="none" xmlns="http://www.w3.org/2000/svg">
<path d="M17.0011 13.0016C15.8739 13.0016 14.7929 13.4494 13.9959 14.2464C13.1989 15.0435 12.7511 16.1245 12.7511 17.2516C12.7511 18.3788 13.1989 19.4598 13.9959 20.2568C14.7929 21.0539 15.8739 21.5016 17.0011 21.5016C18.1283 21.5016 19.2093 21.0539 20.0063 20.2568C20.8033 19.4598 21.2511 18.3788 21.2511 17.2516C21.2511 16.1245 20.8033 15.0435 20.0063 14.2464C19.2093 13.4494 18.1283 13.0016 17.0011 13.0016ZM17.0011 10.1683C18.8797 10.1683 20.6814 10.9146 22.0098 12.243C23.3381 13.5713 24.0844 15.373 24.0844 17.2516C24.0844 19.1302 23.3381 20.9319 22.0098 22.2603C20.6814 23.5887 18.8797 24.335 17.0011 24.335C15.1225 24.335 13.3208 23.5887 11.9924 22.2603C10.664 20.9319 9.91776 19.1302 9.91776 17.2516C9.91776 15.373 10.664 13.5713 11.9924 12.243C13.3208 10.9146 15.1225 10.1683 17.0011 10.1683ZM26.2094 9.81413C26.2094 10.2838 26.0229 10.7342 25.6908 11.0663C25.3587 11.3984 24.9082 11.585 24.4386 11.585C23.9689 11.585 23.5185 11.3984 23.1864 11.0663C22.8543 10.7342 22.6678 10.2838 22.6678 9.81413C22.6678 9.34447 22.8543 8.89405 23.1864 8.56196C23.5185 8.22986 23.9689 8.04329 24.4386 8.04329C24.9082 8.04329 25.3587 8.22986 25.6908 8.56196C26.0229 8.89405 26.2094 9.34447 26.2094 9.81413ZM17.0011 5.91829C13.4963 5.91829 12.9239 5.92821 11.2933 6.00046C10.1827 6.05288 9.43751 6.20163 8.74617 6.47079C8.16763 6.68321 7.64459 7.02366 7.21617 7.46671C6.77277 7.89511 6.43184 8.41812 6.21884 8.99671C5.94967 9.69088 5.80092 10.4346 5.74992 11.5439C5.67626 13.1079 5.66634 13.6547 5.66634 17.2516C5.66634 20.7579 5.67626 21.3288 5.74851 22.9594C5.80092 24.0686 5.94967 24.8152 6.21742 25.5051C6.45826 26.1214 6.74159 26.5648 7.21192 27.0351C7.68934 27.5111 8.13276 27.7959 8.74192 28.031C9.44176 28.3016 10.1869 28.4518 11.2919 28.5028C12.8559 28.5765 13.4028 28.585 16.9997 28.585C20.5059 28.585 21.0768 28.575 22.7074 28.5028C23.8153 28.4504 24.5604 28.3016 25.2532 28.0339C25.8312 27.8204 26.354 27.4801 26.7832 27.038C27.2606 26.562 27.5453 26.1185 27.7805 25.508C28.0497 24.811 28.1998 24.0658 28.2508 22.958C28.3245 21.3954 28.333 20.8471 28.333 17.2516C28.333 13.7468 28.3231 13.1745 28.2508 11.5439C28.1984 10.436 28.0483 9.68804 27.7805 8.99671C27.567 8.41873 27.2267 7.89594 26.7846 7.46671C26.3564 7.02308 25.8333 6.68211 25.2546 6.46938C24.5604 6.20021 23.8153 6.05146 22.7074 6.00046C21.1448 5.92679 20.598 5.91829 16.9997 5.91829M16.9997 3.08496C20.8488 3.08496 21.329 3.09913 22.8406 3.16996C24.3479 3.24079 25.3764 3.47738 26.2788 3.82871C27.2138 4.18854 28.0015 4.67588 28.7892 5.46213C29.5095 6.17031 30.0669 7.02696 30.4226 7.97246C30.7725 8.87488 31.0105 9.90338 31.0813 11.4121C31.1479 12.9223 31.1663 13.4025 31.1663 17.2516C31.1663 21.1007 31.1522 21.581 31.0813 23.0911C31.0105 24.5999 30.7725 25.627 30.4226 26.5308C30.0679 27.4768 29.5104 28.3336 28.7892 29.0411C28.0808 29.7612 27.2242 30.3186 26.2788 30.6745C25.3764 31.0245 24.3479 31.2625 22.8406 31.3333C21.329 31.3999 20.8488 31.4183 16.9997 31.4183C13.1506 31.4183 12.6703 31.4041 11.1588 31.3333C9.65142 31.2625 8.62434 31.0245 7.72051 30.6745C6.77464 30.3196 5.91784 29.7621 5.21017 29.0411C4.4897 28.333 3.93228 27.4764 3.57676 26.5308C3.22542 25.6284 2.98884 24.5999 2.91801 23.0911C2.85001 21.581 2.83301 21.1007 2.83301 17.2516C2.83301 13.4025 2.84717 12.9223 2.91801 11.4121C2.98884 9.90338 3.22542 8.87629 3.57676 7.97246C3.93126 7.02638 4.48881 6.1695 5.21017 5.46213C5.91804 4.74137 6.77478 4.18391 7.72051 3.82871C8.62292 3.47738 9.65001 3.24079 11.1588 3.16996C12.6718 3.10338 13.152 3.08496 17.0011 3.08496" fill="black"/>
</svg>
