<svg width="41" height="35" viewBox="0 0 41 35" fill="none" xmlns="http://www.w3.org/2000/svg">
<g clip-path="url(#clip0_150_175)">
<path d="M38.3002 32.0568C38.3867 32.0577 38.4723 32.0409 38.552 32.0076C38.6316 31.9743 38.7034 31.9252 38.7631 31.8633C38.8227 31.8013 38.8688 31.7279 38.8986 31.6476C38.9284 31.5673 38.9412 31.4818 38.9362 31.3963C38.9362 30.9279 38.6508 30.7041 38.0653 30.7041H37.1191V33.1565H37.475V32.0875H37.9123L37.9223 32.1005L38.6009 33.1565H38.9815L38.2513 32.0636L38.3002 32.0568ZM37.8887 31.8111H37.476V30.982H37.999C38.2692 30.982 38.5772 31.0258 38.5772 31.376C38.5772 31.7789 38.2655 31.8111 37.8866 31.8111" fill="black"/>
<path d="M29.0172 28.9835H23.971V21.1588C23.971 19.293 23.9374 16.891 21.3465 16.891C18.7182 16.891 18.3161 18.9239 18.3161 21.023V28.983H13.2699V12.8923H18.1143V15.0912H18.1821C18.6669 14.2705 19.3674 13.5953 20.2091 13.1376C21.0508 12.6798 22.0021 12.4567 22.9618 12.492C28.0763 12.492 29.0193 15.823 29.0193 20.1564L29.0172 28.9835ZM7.57617 10.6928C6.99699 10.6929 6.43078 10.5229 5.94915 10.2044C5.46753 9.88588 5.09214 9.4331 4.8704 8.90332C4.64867 8.37354 4.59056 7.79056 4.70344 7.22808C4.81633 6.66561 5.09515 6.14892 5.50462 5.74334C5.91408 5.33776 6.43582 5.06152 7.00384 4.94954C7.57187 4.83756 8.16066 4.89487 8.69579 5.11424C9.23092 5.3336 9.68833 5.70515 10.0102 6.18192C10.332 6.65869 10.5039 7.21925 10.504 7.79272C10.5041 8.17349 10.4284 8.55055 10.2813 8.90236C10.1342 9.25417 9.91856 9.57385 9.64669 9.84314C9.37482 10.1124 9.05201 10.3261 8.69675 10.4718C8.34149 10.6176 7.96072 10.6927 7.57617 10.6928ZM10.0992 28.9835H5.04782V12.8923H10.0992V28.9835ZM31.5329 0.253762H2.51213C1.85344 0.246402 1.21871 0.498275 0.747482 0.954033C0.27625 1.40979 0.00706238 2.03215 -0.000976562 2.68434V31.5385C0.00678724 32.191 0.275817 32.8138 0.747033 33.27C1.21825 33.7262 1.85311 33.9786 2.51213 33.9717H31.5329C32.1932 33.9799 32.8299 33.7282 33.3029 33.272C33.776 32.8158 34.0468 32.1923 34.056 31.5385V2.68226C34.0466 2.02877 33.7755 1.40571 33.3025 0.949961C32.8294 0.494214 32.1929 0.243061 31.5329 0.25168" fill="black"/>
<path d="M37.9318 29.6113C37.3179 29.6172 36.7312 29.8635 36.3002 30.2965C35.8692 30.7294 35.6289 31.3138 35.6319 31.9217C35.6348 32.5296 35.8808 33.1116 36.316 33.5405C36.7512 33.9693 37.3402 34.2101 37.9541 34.2101C38.5681 34.2101 39.1571 33.9693 39.5923 33.5405C40.0275 33.1116 40.2735 32.5296 40.2764 31.9217C40.2794 31.3138 40.0391 30.7294 39.6081 30.2965C39.1771 29.8635 38.5904 29.6172 37.9765 29.6113H37.9318ZM37.9318 33.9468C37.5291 33.9534 37.1335 33.8417 36.7949 33.6257C36.4564 33.4097 36.1901 33.0991 36.0298 32.7333C35.8695 32.3675 35.8224 31.9628 35.8944 31.5704C35.9663 31.1781 36.1542 30.8156 36.4343 30.529C36.7143 30.2424 37.0738 30.0444 37.4674 29.9601C37.8611 29.8758 38.2712 29.909 38.6458 30.0554C39.0204 30.2019 39.3427 30.455 39.572 30.7829C39.8013 31.1107 39.9273 31.4985 39.934 31.8972C39.934 31.9087 39.934 31.9196 39.934 31.931C39.9452 32.4541 39.7462 32.9602 39.3807 33.338C39.0152 33.7158 38.5131 33.9344 37.9849 33.9458H37.9323" fill="black"/>
</g>
<defs>
<clipPath id="clip0_150_175">
<rect width="40.2769" height="34" fill="white" transform="translate(0 0.251465)"/>
</clipPath>
</defs>
</svg>
