<svg width="71" height="28" viewBox="0 0 71 28" fill="none" xmlns="http://www.w3.org/2000/svg">
<path d="M13.5005 27.0254C14.3809 27.0254 15.1025 26.3773 15.2247 25.4601C16.4353 17.2913 17.5481 16.1541 25.399 15.2614C26.3038 15.1514 27.0009 14.3932 27.0009 13.5127C27.0009 12.62 26.3161 11.8863 25.4112 11.7518C17.6093 10.6634 16.6433 9.70957 15.2247 1.55311C15.0657 0.648172 14.3687 0 13.5005 0C12.6078 0 11.8984 0.648171 11.7518 1.56527C10.5656 9.72186 9.45281 10.8591 1.61417 11.7518C0.684784 11.8741 0 12.6078 0 13.5127C0 14.3932 0.660336 15.1269 1.58972 15.2614C9.40379 16.3742 10.3576 17.3158 11.7518 25.4724C11.9352 26.3895 12.6444 27.0254 13.5005 27.0254Z" fill="#0C0C0C"/>
<mask id="path-2-outside-1_1_242" maskUnits="userSpaceOnUse" x="35.0009" y="8.0127" width="37" height="12" fill="black">
<rect fill="white" x="35.0009" y="8.0127" width="37" height="12"/>
<path d="M42.5009 13.2527L42.4009 15.5527C42.4009 16.7127 42.5342 17.4927 42.8009 17.8927C42.9609 18.1594 43.1809 18.2927 43.4609 18.2927C43.5409 18.2927 43.6542 18.2727 43.8009 18.2327C44.0809 18.1527 44.3142 18.1927 44.5009 18.3527C44.4075 18.8194 43.9409 19.0527 43.1009 19.0527C42.5275 19.0527 42.1475 18.8127 41.9609 18.3327C41.8142 17.9727 41.7075 17.526 41.6409 16.9927C41.5742 16.446 41.5209 16.0727 41.4809 15.8727C40.6142 17.526 39.7742 18.5327 38.9609 18.8927C38.5475 19.0794 38.0675 19.1727 37.5209 19.1727C36.9742 19.1727 36.5475 18.9127 36.2409 18.3927C35.9475 17.8594 35.8009 17.086 35.8009 16.0727C35.8009 15.0594 35.9675 13.9994 36.3009 12.8927C36.6342 11.7727 37.1209 10.8327 37.7609 10.0727C38.4009 9.29936 39.1009 8.9127 39.8609 8.9127C40.9542 8.9127 41.6809 9.36603 42.0409 10.2727C42.3475 11.046 42.5009 12.0394 42.5009 13.2527ZM37.6009 12.6127C37.4142 13.3327 37.2742 14.0194 37.1809 14.6727C37.0875 15.3127 37.0409 15.886 37.0409 16.3927C37.0409 16.886 37.1409 17.3127 37.3409 17.6727C37.5542 18.0327 37.8275 18.2127 38.1609 18.2127C38.8809 18.2127 39.5742 17.5327 40.2409 16.1727C40.9075 14.8127 41.2409 13.546 41.2409 12.3727C41.2409 11.6127 41.0409 10.986 40.6409 10.4927C40.3742 10.1727 40.0209 10.0127 39.5809 10.0127C39.1542 10.0127 38.7609 10.266 38.4009 10.7727C38.0542 11.266 37.7875 11.8794 37.6009 12.6127ZM47.1252 17.0527L47.1852 18.1927C47.1852 18.486 47.0986 18.6927 46.9252 18.8127C46.7652 18.9194 46.5986 18.9727 46.4252 18.9727C46.2652 18.9727 46.0986 18.946 45.9252 18.8927C45.6319 17.346 45.4052 15.4194 45.2452 13.1127C45.0986 10.806 45.0119 9.49936 44.9852 9.19269C45.1852 9.00603 45.3919 8.9127 45.6052 8.9127C45.8319 8.9127 46.0319 8.93936 46.2052 8.99269C46.2586 9.37936 46.2986 10.2327 46.3252 11.5527C46.3519 12.8727 46.3852 13.6994 46.4252 14.0327C46.6119 12.9127 46.9452 11.866 47.4252 10.8927C47.6919 10.346 48.0386 9.91269 48.4652 9.59269C48.9052 9.25936 49.3719 9.09269 49.8652 9.09269C50.3719 9.09269 50.8319 9.31936 51.2452 9.7727C51.6719 10.2127 51.8852 10.6127 51.8852 10.9727C51.8852 11.106 51.8052 11.2127 51.6452 11.2927C51.4852 11.3594 51.3052 11.3927 51.1052 11.3927C50.9186 11.3927 50.7719 11.3194 50.6652 11.1727C50.5586 11.026 50.4852 10.866 50.4452 10.6927C50.4052 10.506 50.3186 10.3394 50.1852 10.1927C50.0519 10.046 49.8719 9.97269 49.6452 9.97269C49.0452 9.97269 48.5319 10.5127 48.1052 11.5927C47.4519 13.206 47.1252 15.026 47.1252 17.0527ZM54.774 9.6327C54.4273 10.286 54.254 11.2594 54.254 12.5527C54.254 14.4994 54.6206 16.0527 55.354 17.2127C55.7806 17.8927 56.2873 18.2327 56.874 18.2327C57.474 18.2327 57.954 17.9194 58.314 17.2927C58.7406 16.5194 58.954 15.4527 58.954 14.0927C58.954 12.386 58.714 11.126 58.234 10.3127C58.0206 9.92603 57.894 9.64603 57.854 9.47269C57.8273 9.29936 57.874 9.1727 57.994 9.09269C58.114 9.01269 58.314 8.97269 58.594 8.97269C59.4073 8.97269 59.9406 9.81269 60.194 11.4927C60.274 11.9594 60.314 12.426 60.314 12.8927C60.314 14.106 60.074 15.3194 59.594 16.5327C58.914 18.1994 57.8406 19.0327 56.374 19.0327C55.6006 19.0327 54.9406 18.746 54.394 18.1727C53.3673 17.0794 52.854 15.4327 52.854 13.2327C52.854 12.2727 52.9206 11.5394 53.054 11.0327C53.1873 10.526 53.3006 10.1994 53.394 10.0527C53.4873 9.8927 53.6006 9.74603 53.734 9.61269C53.8673 9.47936 54.014 9.42603 54.174 9.4527C54.3473 9.47936 54.5473 9.53936 54.774 9.6327ZM70.5141 18.4527C70.2741 18.706 70.0008 18.8327 69.6941 18.8327C69.1208 18.8327 68.6941 18.526 68.4141 17.9127C68.1341 17.2994 67.9675 16.5527 67.9141 15.6727C67.8741 14.7927 67.8475 13.9127 67.8341 13.0327C67.8208 12.1527 67.7475 11.406 67.6141 10.7927C67.4941 10.1794 67.2608 9.87269 66.9141 9.87269C66.4475 9.87269 66.0475 10.2927 65.7141 11.1327C65.3941 11.9727 65.1675 12.906 65.0341 13.9327C64.6608 16.7994 64.3008 18.406 63.9541 18.7527C63.7141 18.8727 63.5075 18.9327 63.3341 18.9327C63.1608 18.9327 63.0141 18.9127 62.8941 18.8727C62.6141 17.646 62.4341 15.5327 62.3541 12.5327C62.3275 11.0394 62.3008 10.0727 62.2741 9.6327C62.5541 9.44603 62.7941 9.3527 62.9941 9.3527C63.1941 9.3527 63.3541 9.3727 63.4741 9.41269C63.5408 9.98603 63.5741 11.1594 63.5741 12.9327C63.5875 14.706 63.6008 15.726 63.6141 15.9927C63.6808 15.7127 63.7608 15.2594 63.8541 14.6327C63.9608 14.006 64.0541 13.4927 64.1341 13.0927C64.2141 12.6794 64.3408 12.1994 64.5141 11.6527C64.6875 11.106 64.8808 10.6727 65.0941 10.3527C65.3075 10.0194 65.6008 9.73936 65.9741 9.51269C66.3475 9.27269 66.7675 9.15269 67.2341 9.15269C67.8608 9.15269 68.3141 9.43936 68.5941 10.0127C68.8875 10.5727 69.0475 11.2727 69.0741 12.1127C69.1008 12.9527 69.1141 13.806 69.1141 14.6727C69.1275 15.5394 69.2341 16.3327 69.4341 17.0527C69.6475 17.7727 70.0075 18.2394 70.5141 18.4527Z"/>
</mask>
<path d="M42.5009 13.2527L42.4009 15.5527C42.4009 16.7127 42.5342 17.4927 42.8009 17.8927C42.9609 18.1594 43.1809 18.2927 43.4609 18.2927C43.5409 18.2927 43.6542 18.2727 43.8009 18.2327C44.0809 18.1527 44.3142 18.1927 44.5009 18.3527C44.4075 18.8194 43.9409 19.0527 43.1009 19.0527C42.5275 19.0527 42.1475 18.8127 41.9609 18.3327C41.8142 17.9727 41.7075 17.526 41.6409 16.9927C41.5742 16.446 41.5209 16.0727 41.4809 15.8727C40.6142 17.526 39.7742 18.5327 38.9609 18.8927C38.5475 19.0794 38.0675 19.1727 37.5209 19.1727C36.9742 19.1727 36.5475 18.9127 36.2409 18.3927C35.9475 17.8594 35.8009 17.086 35.8009 16.0727C35.8009 15.0594 35.9675 13.9994 36.3009 12.8927C36.6342 11.7727 37.1209 10.8327 37.7609 10.0727C38.4009 9.29936 39.1009 8.9127 39.8609 8.9127C40.9542 8.9127 41.6809 9.36603 42.0409 10.2727C42.3475 11.046 42.5009 12.0394 42.5009 13.2527ZM37.6009 12.6127C37.4142 13.3327 37.2742 14.0194 37.1809 14.6727C37.0875 15.3127 37.0409 15.886 37.0409 16.3927C37.0409 16.886 37.1409 17.3127 37.3409 17.6727C37.5542 18.0327 37.8275 18.2127 38.1609 18.2127C38.8809 18.2127 39.5742 17.5327 40.2409 16.1727C40.9075 14.8127 41.2409 13.546 41.2409 12.3727C41.2409 11.6127 41.0409 10.986 40.6409 10.4927C40.3742 10.1727 40.0209 10.0127 39.5809 10.0127C39.1542 10.0127 38.7609 10.266 38.4009 10.7727C38.0542 11.266 37.7875 11.8794 37.6009 12.6127ZM47.1252 17.0527L47.1852 18.1927C47.1852 18.486 47.0986 18.6927 46.9252 18.8127C46.7652 18.9194 46.5986 18.9727 46.4252 18.9727C46.2652 18.9727 46.0986 18.946 45.9252 18.8927C45.6319 17.346 45.4052 15.4194 45.2452 13.1127C45.0986 10.806 45.0119 9.49936 44.9852 9.19269C45.1852 9.00603 45.3919 8.9127 45.6052 8.9127C45.8319 8.9127 46.0319 8.93936 46.2052 8.99269C46.2586 9.37936 46.2986 10.2327 46.3252 11.5527C46.3519 12.8727 46.3852 13.6994 46.4252 14.0327C46.6119 12.9127 46.9452 11.866 47.4252 10.8927C47.6919 10.346 48.0386 9.91269 48.4652 9.59269C48.9052 9.25936 49.3719 9.09269 49.8652 9.09269C50.3719 9.09269 50.8319 9.31936 51.2452 9.7727C51.6719 10.2127 51.8852 10.6127 51.8852 10.9727C51.8852 11.106 51.8052 11.2127 51.6452 11.2927C51.4852 11.3594 51.3052 11.3927 51.1052 11.3927C50.9186 11.3927 50.7719 11.3194 50.6652 11.1727C50.5586 11.026 50.4852 10.866 50.4452 10.6927C50.4052 10.506 50.3186 10.3394 50.1852 10.1927C50.0519 10.046 49.8719 9.97269 49.6452 9.97269C49.0452 9.97269 48.5319 10.5127 48.1052 11.5927C47.4519 13.206 47.1252 15.026 47.1252 17.0527ZM54.774 9.6327C54.4273 10.286 54.254 11.2594 54.254 12.5527C54.254 14.4994 54.6206 16.0527 55.354 17.2127C55.7806 17.8927 56.2873 18.2327 56.874 18.2327C57.474 18.2327 57.954 17.9194 58.314 17.2927C58.7406 16.5194 58.954 15.4527 58.954 14.0927C58.954 12.386 58.714 11.126 58.234 10.3127C58.0206 9.92603 57.894 9.64603 57.854 9.47269C57.8273 9.29936 57.874 9.1727 57.994 9.09269C58.114 9.01269 58.314 8.97269 58.594 8.97269C59.4073 8.97269 59.9406 9.81269 60.194 11.4927C60.274 11.9594 60.314 12.426 60.314 12.8927C60.314 14.106 60.074 15.3194 59.594 16.5327C58.914 18.1994 57.8406 19.0327 56.374 19.0327C55.6006 19.0327 54.9406 18.746 54.394 18.1727C53.3673 17.0794 52.854 15.4327 52.854 13.2327C52.854 12.2727 52.9206 11.5394 53.054 11.0327C53.1873 10.526 53.3006 10.1994 53.394 10.0527C53.4873 9.8927 53.6006 9.74603 53.734 9.61269C53.8673 9.47936 54.014 9.42603 54.174 9.4527C54.3473 9.47936 54.5473 9.53936 54.774 9.6327ZM70.5141 18.4527C70.2741 18.706 70.0008 18.8327 69.6941 18.8327C69.1208 18.8327 68.6941 18.526 68.4141 17.9127C68.1341 17.2994 67.9675 16.5527 67.9141 15.6727C67.8741 14.7927 67.8475 13.9127 67.8341 13.0327C67.8208 12.1527 67.7475 11.406 67.6141 10.7927C67.4941 10.1794 67.2608 9.87269 66.9141 9.87269C66.4475 9.87269 66.0475 10.2927 65.7141 11.1327C65.3941 11.9727 65.1675 12.906 65.0341 13.9327C64.6608 16.7994 64.3008 18.406 63.9541 18.7527C63.7141 18.8727 63.5075 18.9327 63.3341 18.9327C63.1608 18.9327 63.0141 18.9127 62.8941 18.8727C62.6141 17.646 62.4341 15.5327 62.3541 12.5327C62.3275 11.0394 62.3008 10.0727 62.2741 9.6327C62.5541 9.44603 62.7941 9.3527 62.9941 9.3527C63.1941 9.3527 63.3541 9.3727 63.4741 9.41269C63.5408 9.98603 63.5741 11.1594 63.5741 12.9327C63.5875 14.706 63.6008 15.726 63.6141 15.9927C63.6808 15.7127 63.7608 15.2594 63.8541 14.6327C63.9608 14.006 64.0541 13.4927 64.1341 13.0927C64.2141 12.6794 64.3408 12.1994 64.5141 11.6527C64.6875 11.106 64.8808 10.6727 65.0941 10.3527C65.3075 10.0194 65.6008 9.73936 65.9741 9.51269C66.3475 9.27269 66.7675 9.15269 67.2341 9.15269C67.8608 9.15269 68.3141 9.43936 68.5941 10.0127C68.8875 10.5727 69.0475 11.2727 69.0741 12.1127C69.1008 12.9527 69.1141 13.806 69.1141 14.6727C69.1275 15.5394 69.2341 16.3327 69.4341 17.0527C69.6475 17.7727 70.0075 18.2394 70.5141 18.4527Z" fill="#0C0C0C"/>
<path d="M42.5009 13.2527L42.8009 13.2657V13.2527H42.5009ZM42.4009 15.5527L42.1009 15.5397V15.5527H42.4009ZM42.8009 17.8927L43.0581 17.7383L43.0544 17.7322L43.0505 17.7263L42.8009 17.8927ZM43.8009 18.2327L43.8798 18.5221L43.8833 18.5212L43.8009 18.2327ZM44.5009 18.3527L44.795 18.4115L44.8295 18.2393L44.6961 18.1249L44.5009 18.3527ZM41.9609 18.3327L42.2405 18.2239L42.2387 18.2195L41.9609 18.3327ZM41.6409 16.9927L41.3431 17.029L41.3432 17.0299L41.6409 16.9927ZM41.4809 15.8727L41.775 15.8139L41.6088 14.9825L41.2151 15.7334L41.4809 15.8727ZM38.9609 18.8927L38.8394 18.6184L38.8374 18.6193L38.9609 18.8927ZM36.2409 18.3927L35.9779 18.5373L35.9824 18.5451L36.2409 18.3927ZM36.3009 12.8927L36.5881 12.9792L36.5884 12.9783L36.3009 12.8927ZM37.7609 10.0727L37.9903 10.2659L37.992 10.264L37.7609 10.0727ZM42.0409 10.2727L42.3197 10.1621L42.3197 10.162L42.0409 10.2727ZM37.6009 12.6127L37.8913 12.688L37.8916 12.6867L37.6009 12.6127ZM37.1809 14.6727L37.4777 14.716L37.4778 14.7151L37.1809 14.6727ZM37.3409 17.6727L37.0785 17.8184L37.0828 17.8256L37.3409 17.6727ZM40.2409 16.1727L40.5102 16.3047L40.2409 16.1727ZM40.6409 10.4927L40.8739 10.3037L40.8713 10.3006L40.6409 10.4927ZM38.4009 10.7727L38.1563 10.5989L38.1554 10.6002L38.4009 10.7727ZM42.2011 13.2397L42.1011 15.5397L42.7006 15.5657L42.8006 13.2657L42.2011 13.2397ZM42.1009 15.5527C42.1009 16.1426 42.1346 16.6458 42.2051 17.0582C42.2749 17.4662 42.3843 17.8087 42.5512 18.0591L43.0505 17.7263C42.9508 17.5767 42.8602 17.3292 42.7966 16.9571C42.7337 16.5896 42.7009 16.1228 42.7009 15.5527H42.1009ZM42.5436 18.047C42.7506 18.3921 43.0622 18.5927 43.4609 18.5927V17.9927C43.2995 17.9927 43.1711 17.9267 43.0581 17.7383L42.5436 18.047ZM43.4609 18.5927C43.5817 18.5927 43.7261 18.564 43.8798 18.5221L43.7219 17.9433C43.5823 17.9813 43.5 17.9927 43.4609 17.9927V18.5927ZM43.8833 18.5212C44.0871 18.4629 44.2104 18.4989 44.3056 18.5805L44.6961 18.1249C44.4179 17.8865 44.0747 17.8425 43.7184 17.9442L43.8833 18.5212ZM44.2067 18.2939C44.1801 18.4268 44.1064 18.5295 43.9467 18.6094C43.7729 18.6963 43.4996 18.7527 43.1009 18.7527V19.3527C43.5421 19.3527 43.9221 19.2925 44.215 19.146C44.522 18.9925 44.7283 18.7452 44.795 18.4115L44.2067 18.2939ZM43.1009 18.7527C42.8554 18.7527 42.6765 18.7015 42.5461 18.619C42.418 18.5382 42.3141 18.4132 42.2405 18.224L41.6813 18.4414C41.7943 18.7322 41.9737 18.9672 42.2257 19.1263C42.4752 19.2839 42.773 19.3527 43.1009 19.3527V18.7527ZM42.2387 18.2195C42.1049 17.8911 42.0031 17.4719 41.9385 16.9555L41.3432 17.0299C41.412 17.5802 41.5235 18.0543 41.683 18.4459L42.2387 18.2195ZM41.9386 16.9564C41.8721 16.4107 41.8176 16.0266 41.775 15.8139L41.1867 15.9315C41.2241 16.1188 41.2763 16.4814 41.3431 17.029L41.9386 16.9564ZM41.2151 15.7334C40.3515 17.3809 39.5516 18.3031 38.8394 18.6184L39.0823 19.167C39.9967 18.7623 40.8768 17.6711 41.7466 16.012L41.2151 15.7334ZM38.8374 18.6193C38.47 18.7852 38.0335 18.8727 37.5209 18.8727V19.4727C38.1015 19.4727 38.6251 19.3735 39.0843 19.1661L38.8374 18.6193ZM37.5209 18.8727C37.0931 18.8727 36.7588 18.6803 36.4993 18.2403L35.9824 18.5451C36.3363 19.1451 36.8553 19.4727 37.5209 19.4727V18.8727ZM36.5037 18.2481C36.2459 17.7793 36.1009 17.0652 36.1009 16.0727H35.5009C35.5009 17.1069 35.6492 17.9394 35.978 18.5373L36.5037 18.2481ZM36.1009 16.0727C36.1009 15.0925 36.2621 14.0617 36.5881 12.9792L36.0136 12.8062C35.673 13.937 35.5009 15.0263 35.5009 16.0727H36.1009ZM36.5884 12.9783C36.912 11.8909 37.3811 10.9894 37.9903 10.2659L37.5314 9.87945C36.8606 10.676 36.3564 11.6545 36.0133 12.8071L36.5884 12.9783ZM37.992 10.264C38.5945 9.53587 39.217 9.2127 39.8609 9.2127V8.6127C38.9848 8.6127 38.2072 9.06285 37.5297 9.88142L37.992 10.264ZM39.8609 9.2127C40.3667 9.2127 40.7629 9.31747 41.0671 9.50723C41.3687 9.69539 41.6022 9.98097 41.762 10.3834L42.3197 10.162C42.1195 9.65775 41.8097 9.26333 41.3846 8.99817C40.9622 8.73459 40.4483 8.6127 39.8609 8.6127V9.2127ZM41.762 10.3833C42.0498 11.1092 42.2009 12.0614 42.2009 13.2527H42.8009C42.8009 12.0173 42.6452 10.9829 42.3197 10.1621L41.762 10.3833ZM37.3105 12.5374C37.1213 13.2669 36.979 13.9646 36.8839 14.6303L37.4778 14.7151C37.5694 14.0741 37.707 13.3985 37.8913 12.688L37.3105 12.5374ZM36.884 14.6294C36.7891 15.28 36.7409 15.8682 36.7409 16.3927H37.3409C37.3409 15.9038 37.3859 15.3454 37.4777 14.716L36.884 14.6294ZM36.7409 16.3927C36.7409 16.9269 36.8494 17.4058 37.0786 17.8184L37.6031 17.527C37.4323 17.2196 37.3409 16.8451 37.3409 16.3927H36.7409ZM37.0828 17.8256C37.3342 18.2499 37.6936 18.5127 38.1609 18.5127V17.9127C37.9615 17.9127 37.7742 17.8155 37.5989 17.5198L37.0828 17.8256ZM38.1609 18.5127C38.6236 18.5127 39.0482 18.2922 39.4309 17.9169C39.8115 17.5436 40.1693 17.0002 40.5102 16.3047L39.9715 16.0406C39.6457 16.7052 39.3235 17.1818 39.0108 17.4885C38.7001 17.7932 38.4181 17.9127 38.1609 17.9127V18.5127ZM40.5102 16.3047C41.1914 14.9152 41.5409 13.6031 41.5409 12.3727H40.9409C40.9409 13.4889 40.6237 14.7102 39.9715 16.0406L40.5102 16.3047ZM41.5409 12.3727C41.5409 11.558 41.3253 10.8605 40.8739 10.3038L40.4078 10.6816C40.7564 11.1115 40.9409 11.6674 40.9409 12.3727H41.5409ZM40.8713 10.3006C40.5441 9.90795 40.1041 9.7127 39.5809 9.7127V10.3127C39.9376 10.3127 40.2043 10.4374 40.4104 10.6847L40.8713 10.3006ZM39.5809 9.7127C39.018 9.7127 38.5454 10.0514 38.1563 10.5989L38.6454 10.9465C38.9764 10.4807 39.2904 10.3127 39.5809 10.3127V9.7127ZM38.1554 10.6002C37.7832 11.1299 37.5036 11.7787 37.3101 12.5387L37.8916 12.6867C38.0715 11.98 38.3252 11.4022 38.6463 10.9452L38.1554 10.6002ZM47.1252 17.0527H46.8252V17.0606L46.8256 17.0685L47.1252 17.0527ZM47.1852 18.1927H47.4852V18.1848L47.4848 18.1769L47.1852 18.1927ZM46.9252 18.8127L47.0917 19.0623L47.096 19.0594L46.9252 18.8127ZM45.9252 18.8927L45.6305 18.9486L45.6642 19.1263L45.837 19.1794L45.9252 18.8927ZM45.2452 13.1127L44.9458 13.1317L44.9459 13.1335L45.2452 13.1127ZM44.9852 9.19269L44.7805 8.97338L44.6737 9.07309L44.6864 9.21868L44.9852 9.19269ZM46.2052 8.99269L46.5024 8.9517L46.4763 8.76221L46.2935 8.70596L46.2052 8.99269ZM46.3252 11.5527L46.6252 11.5466L46.3252 11.5527ZM46.4252 14.0327L46.1274 14.0684L46.7211 14.082L46.4252 14.0327ZM47.4252 10.8927L47.6943 11.0254L47.6949 11.0242L47.4252 10.8927ZM48.4652 9.5927L48.6452 9.8327L48.6464 9.83182L48.4652 9.5927ZM51.2452 9.7727L51.0234 9.97492L51.0299 9.98154L51.2452 9.7727ZM51.6452 11.2927L51.7606 11.5696L51.7702 11.5656L51.7794 11.561L51.6452 11.2927ZM50.6652 11.1727L50.9079 10.9962H50.9079L50.6652 11.1727ZM50.4452 10.6927L50.1519 10.7556L50.1529 10.7602L50.4452 10.6927ZM50.1852 10.1927L49.9632 10.3945L50.1852 10.1927ZM48.1052 11.5927L48.3833 11.7053L48.3842 11.7029L48.1052 11.5927ZM46.8256 17.0685L46.8856 18.2085L47.4848 18.1769L47.4248 17.0369L46.8256 17.0685ZM46.8852 18.1927C46.8852 18.4293 46.8177 18.5222 46.7545 18.566L47.096 19.0594C47.3794 18.8631 47.4852 18.5427 47.4852 18.1927H46.8852ZM46.7588 18.5631C46.6425 18.6406 46.5329 18.6727 46.4252 18.6727V19.2727C46.6642 19.2727 46.888 19.1981 47.0916 19.0623L46.7588 18.5631ZM46.4252 18.6727C46.2988 18.6727 46.162 18.6517 46.0135 18.606L45.837 19.1794C46.0352 19.2404 46.2316 19.2727 46.4252 19.2727V18.6727ZM46.22 18.8368C45.9296 17.3057 45.704 15.3917 45.5445 13.0919L44.9459 13.1335C45.1064 15.447 45.3342 17.3863 45.6305 18.9486L46.22 18.8368ZM45.5446 13.0937C45.3981 10.7896 45.3112 9.47788 45.2841 9.16671L44.6864 9.21868C44.7126 9.52085 44.799 10.8225 44.9458 13.1317L45.5446 13.0937ZM45.1899 9.41201C45.3506 9.26202 45.4875 9.2127 45.6052 9.2127V8.6127C45.2963 8.6127 45.0198 8.75004 44.7805 8.97338L45.1899 9.41201ZM45.6052 9.2127C45.8091 9.2127 45.9784 9.23677 46.117 9.27943L46.2935 8.70596C46.0854 8.64196 45.8547 8.6127 45.6052 8.6127V9.2127ZM45.908 9.03369C45.9585 9.39958 45.9985 10.2342 46.0253 11.5588L46.6252 11.5466C46.5986 10.2311 46.5586 9.35914 46.5024 8.9517L45.908 9.03369ZM46.0253 11.5588C46.0518 12.8734 46.0852 13.717 46.1274 14.0684L46.7231 13.997C46.6853 13.6817 46.6519 12.872 46.6252 11.5466L46.0253 11.5588ZM46.7211 14.082C46.9032 12.9896 47.2279 11.9712 47.6943 11.0254L47.1562 10.76C46.6626 11.7609 46.3206 12.8358 46.1293 13.9834L46.7211 14.082ZM47.6949 11.0242C47.9436 10.5143 48.2617 10.1204 48.6452 9.8327L48.2852 9.35269C47.8155 9.70502 47.4402 10.1778 47.1556 10.7612L47.6949 11.0242ZM48.6464 9.83182C49.0408 9.53305 49.445 9.39269 49.8652 9.39269V8.7927C49.2988 8.7927 48.7697 8.98568 48.2841 9.35357L48.6464 9.83182ZM49.8652 9.39269C50.27 9.39269 50.6541 9.5696 51.0235 9.97482L51.4669 9.57057C51.0097 9.06913 50.4738 8.7927 49.8652 8.7927V9.39269ZM51.0299 9.98154C51.4378 10.4022 51.5852 10.73 51.5852 10.9727H52.1852C52.1852 10.4954 51.906 10.0232 51.4606 9.56385L51.0299 9.98154ZM51.5852 10.9727C51.5852 10.9755 51.5849 10.975 51.5856 10.9728C51.5864 10.9706 51.5869 10.9704 51.5852 10.9727C51.581 10.9783 51.563 10.9984 51.5111 11.0244L51.7794 11.561C52.0005 11.4505 52.1852 11.2588 52.1852 10.9727H51.5852ZM51.5298 11.0158C51.4116 11.065 51.2717 11.0927 51.1052 11.0927V11.6927C51.3388 11.6927 51.5589 11.6537 51.7606 11.5696L51.5298 11.0158ZM51.1052 11.0927C51.0112 11.0927 50.9561 11.0626 50.9079 10.9962L50.4226 11.3491C50.5877 11.5761 50.8259 11.6927 51.1052 11.6927V11.0927ZM50.9079 10.9962C50.8244 10.8815 50.7683 10.7585 50.7375 10.6252L50.1529 10.7602C50.2022 10.9736 50.2927 11.1705 50.4226 11.3491L50.9079 10.9962ZM50.7386 10.6298C50.687 10.3893 50.5748 10.1752 50.4072 9.99089L49.9632 10.3945C50.0624 10.5035 50.1234 10.6227 50.1519 10.7556L50.7386 10.6298ZM50.4072 9.99089C50.2086 9.77242 49.943 9.6727 49.6452 9.6727V10.2727C49.8008 10.2727 49.8952 10.3196 49.9632 10.3945L50.4072 9.99089ZM49.6452 9.6727C49.244 9.6727 48.8915 9.85679 48.5928 10.171C48.299 10.4801 48.0467 10.9245 47.8262 11.4825L48.3842 11.7029C48.5905 11.1809 48.8081 10.8153 49.0277 10.5844C49.2423 10.3586 49.4465 10.2727 49.6452 10.2727V9.6727ZM47.8272 11.4801C47.1572 13.1346 46.8252 14.9937 46.8252 17.0527H47.4252C47.4252 15.0584 47.7466 13.2775 48.3833 11.7053L47.8272 11.4801ZM54.774 9.6327L55.039 9.77331L55.194 9.4812L54.8882 9.35529L54.774 9.6327ZM55.354 17.2127L55.6081 17.0532L55.6076 17.0524L55.354 17.2127ZM58.314 17.2927L58.5742 17.4422L58.5767 17.4376L58.314 17.2927ZM58.234 10.3127L57.9712 10.4577L57.9756 10.4652L58.234 10.3127ZM57.854 9.47269L57.5575 9.51831L57.5592 9.52931L57.5617 9.54015L57.854 9.47269ZM60.194 11.4927L59.8973 11.5374L59.8983 11.5434L60.194 11.4927ZM59.594 16.5327L59.8718 16.646L59.8729 16.6431L59.594 16.5327ZM54.394 18.1727L54.1753 18.3781L54.1769 18.3797L54.394 18.1727ZM53.394 10.0527L53.6473 10.2139L53.6531 10.2039L53.394 10.0527ZM53.734 9.61269L53.5218 9.40056V9.40056L53.734 9.61269ZM54.174 9.45269L54.1247 9.74864L54.1284 9.74921L54.174 9.45269ZM54.509 9.49208C54.128 10.21 53.954 11.242 53.954 12.5527H54.554C54.554 11.2767 54.7266 10.3621 55.039 9.77331L54.509 9.49208ZM53.954 12.5527C53.954 14.5335 54.3266 16.1489 55.1004 17.373L55.6076 17.0524C54.9147 15.9564 54.554 14.4653 54.554 12.5527H53.954ZM55.0999 17.3721C55.559 18.1038 56.1479 18.5327 56.874 18.5327V17.9327C56.4267 17.9327 56.0023 17.6816 55.6081 17.0532L55.0999 17.3721ZM56.874 18.5327C57.605 18.5327 58.1735 18.1395 58.5741 17.4421L58.0538 17.1433C57.7344 17.6993 57.3429 17.9327 56.874 17.9327V18.5327ZM58.5767 17.4376C59.0376 16.6022 59.254 15.4784 59.254 14.0927H58.654C58.654 15.427 58.4437 16.4365 58.0513 17.1478L58.5767 17.4376ZM59.254 14.0927C59.254 12.3695 59.0137 11.0437 58.4923 10.1602L57.9756 10.4652C58.4142 11.2084 58.654 12.4025 58.654 14.0927H59.254ZM58.4967 10.1678C58.2827 9.77999 58.1758 9.53312 58.1463 9.40524L57.5617 9.54015C57.6122 9.75893 57.7586 10.0721 57.9713 10.4576L58.4967 10.1678ZM58.1505 9.42708C58.1426 9.37604 58.1492 9.35486 58.1505 9.35141C58.1509 9.3504 58.1511 9.35001 58.1511 9.35C58.1511 9.35 58.1511 9.34996 58.1513 9.34977C58.1514 9.34962 58.1536 9.34686 58.1604 9.34231L57.8276 8.84308C57.7186 8.91575 57.6343 9.01688 57.5875 9.14398C57.5421 9.26719 57.5387 9.39601 57.5575 9.51831L58.1505 9.42708ZM58.1604 9.34231C58.2029 9.31395 58.3265 9.27269 58.594 9.27269V8.67269C58.3015 8.67269 58.025 8.71144 57.8276 8.84308L58.1604 9.34231ZM58.594 9.27269C58.8741 9.27269 59.1249 9.40787 59.3507 9.7635C59.5845 10.1317 59.7731 10.7135 59.8973 11.5374L60.4906 11.448C60.3615 10.5918 60.1568 9.91367 59.8572 9.44189C59.5497 8.95752 59.1272 8.67269 58.594 8.67269V9.27269ZM59.8983 11.5434C59.9755 11.9936 60.014 12.4433 60.014 12.8927H60.614C60.614 12.4088 60.5725 11.9252 60.4897 11.442L59.8983 11.5434ZM60.014 12.8927C60.014 14.0655 59.7822 15.2415 59.315 16.4223L59.8729 16.6431C60.3658 15.3973 60.614 14.1466 60.614 12.8927H60.014ZM59.3162 16.4194C58.9898 17.2193 58.5787 17.7952 58.095 18.1707C57.6152 18.5432 57.0463 18.7327 56.374 18.7327V19.3327C57.1683 19.3327 57.8694 19.1055 58.463 18.6447C59.0526 18.1869 59.5181 17.5128 59.8717 16.646L59.3162 16.4194ZM56.374 18.7327C55.6849 18.7327 55.1027 18.4813 54.6111 17.9657L54.1769 18.3797C54.7786 19.0108 55.5164 19.3327 56.374 19.3327V18.7327ZM54.6127 17.9673C53.6582 16.9508 53.154 15.3916 53.154 13.2327H52.554C52.554 15.4738 53.0765 17.2079 54.1753 18.3781L54.6127 17.9673ZM53.154 13.2327C53.154 12.2809 53.2207 11.5781 53.3441 11.109L52.7639 10.9563C52.6206 11.5006 52.554 12.2645 52.554 13.2327H53.154ZM53.3441 11.109C53.4097 10.8598 53.4692 10.6595 53.5224 10.506C53.5774 10.3476 53.6199 10.2565 53.6471 10.2138L53.1409 9.89163C53.0747 9.99559 53.0139 10.1412 52.9556 10.3094C52.8954 10.4826 52.8316 10.699 52.7639 10.9563L53.3441 11.109ZM53.6531 10.2039C53.7332 10.0665 53.8307 9.94027 53.9461 9.82483L53.5218 9.40056C53.3706 9.55179 53.2414 9.71888 53.1348 9.90153L53.6531 10.2039ZM53.9461 9.82483C54.0237 9.74725 54.0767 9.74062 54.1247 9.74861L54.2233 9.15678C53.9512 9.11143 53.7109 9.21147 53.5218 9.40056L53.9461 9.82483ZM54.1284 9.74921C54.2709 9.77114 54.4471 9.82254 54.6598 9.9101L54.8882 9.35529C54.6475 9.25618 54.4237 9.18759 54.2196 9.15618L54.1284 9.74921ZM70.5141 18.4527L70.7319 18.659L71.03 18.3444L70.6306 18.1762L70.5141 18.4527ZM68.4141 17.9127L68.687 17.7881L68.4141 17.9127ZM67.9141 15.6727L67.6144 15.6863L67.6147 15.6908L67.9141 15.6727ZM67.8341 13.0327L68.1341 13.0281L67.8341 13.0327ZM67.6141 10.7927L67.3197 10.8503L67.321 10.8564L67.6141 10.7927ZM65.7141 11.1327L65.4353 11.022L65.4338 11.0259L65.7141 11.1327ZM65.0341 13.9327L65.3316 13.9714L65.3316 13.9713L65.0341 13.9327ZM63.9541 18.7527L64.0883 19.021L64.1318 18.9993L64.1663 18.9648L63.9541 18.7527ZM62.8941 18.8727L62.6017 18.9395L62.6392 19.1039L62.7993 19.1573L62.8941 18.8727ZM62.3541 12.5327L62.0542 12.5381L62.0542 12.5407L62.3541 12.5327ZM62.2741 9.6327L62.1077 9.38308L61.9643 9.47873L61.9747 9.65084L62.2741 9.6327ZM63.4741 9.41269L63.7721 9.37805L63.7501 9.18845L63.569 9.12809L63.4741 9.41269ZM63.5741 12.9327H63.2741L63.2741 12.935L63.5741 12.9327ZM63.6141 15.9927L63.3145 16.0077L63.906 16.0622L63.6141 15.9927ZM63.8541 14.6327L63.5583 14.5823L63.5574 14.5885L63.8541 14.6327ZM64.1341 13.0927L64.4283 13.1515L64.4287 13.1497L64.1341 13.0927ZM64.5141 11.6527L64.2282 11.562L64.5141 11.6527ZM65.0941 10.3527L65.3438 10.5191L65.3468 10.5144L65.0941 10.3527ZM65.9741 9.5127L66.1299 9.76922L66.1364 9.76505L65.9741 9.5127ZM68.5941 10.0127L68.3245 10.1444L68.3284 10.1519L68.5941 10.0127ZM69.0741 12.1127L69.374 12.1032L69.0741 12.1127ZM69.1141 14.6727H68.8141L68.8142 14.6773L69.1141 14.6727ZM69.4341 17.0527L69.145 17.133L69.1465 17.1379L69.4341 17.0527ZM70.2964 18.2464C70.1044 18.449 69.9067 18.5327 69.6941 18.5327V19.1327C70.0949 19.1327 70.4438 18.9631 70.7319 18.659L70.2964 18.2464ZM69.6941 18.5327C69.4643 18.5327 69.2769 18.4724 69.1192 18.3591C68.9587 18.2437 68.8114 18.0604 68.687 17.7881L68.1412 18.0373C68.2969 18.3783 68.5029 18.655 68.769 18.8463C69.0381 19.0397 69.3507 19.1327 69.6941 19.1327V18.5327ZM68.687 17.7881C68.4263 17.2169 68.2653 16.5085 68.2136 15.6545L67.6147 15.6908C67.6696 16.5969 67.842 17.3818 68.1412 18.0373L68.687 17.7881ZM68.2138 15.6591C68.174 14.7821 68.1474 13.9051 68.1341 13.0281L67.5342 13.0372C67.5476 13.9203 67.5743 14.8033 67.6144 15.6863L68.2138 15.6591ZM68.1341 13.0281C68.1206 12.1355 68.0462 11.3678 67.9073 10.729L67.321 10.8564C67.4488 11.4443 67.521 12.1699 67.5342 13.0372L68.1341 13.0281ZM67.9086 10.7351C67.8446 10.4082 67.7444 10.1268 67.5879 9.92104C67.4217 9.70269 67.1925 9.57269 66.9141 9.57269V10.1727C66.9824 10.1727 67.0432 10.196 67.1104 10.2844C67.1872 10.3853 67.2637 10.5639 67.3197 10.8503L67.9086 10.7351ZM66.9141 9.57269C66.5796 9.57269 66.2889 9.72674 66.0469 9.9808C65.8098 10.2298 65.6091 10.5841 65.4353 11.022L65.993 11.2433C66.1525 10.8413 66.3185 10.5656 66.4814 10.3946C66.6394 10.2286 66.782 10.1727 66.9141 10.1727V9.57269ZM65.4338 11.0259C65.1043 11.8909 64.8725 12.8475 64.7366 13.8941L65.3316 13.9713C65.4624 12.9645 65.684 12.0545 65.9945 11.2395L65.4338 11.0259ZM64.7366 13.894C64.5504 15.3239 64.3685 16.4318 64.1914 17.2221C64.1028 17.6177 64.0168 17.9269 63.9345 18.1544C63.8481 18.3934 63.7786 18.504 63.742 18.5406L64.1663 18.9648C64.303 18.8281 64.4085 18.6079 64.4987 18.3585C64.5931 18.0976 64.6855 17.7611 64.7769 17.3533C64.9598 16.5369 65.1445 15.4082 65.3316 13.9714L64.7366 13.894ZM63.82 18.4844C63.601 18.5939 63.4423 18.6327 63.3341 18.6327V19.2327C63.5726 19.2327 63.8273 19.1515 64.0883 19.021L63.82 18.4844ZM63.3341 18.6327C63.182 18.6327 63.0694 18.6149 62.989 18.5881L62.7993 19.1573C62.9588 19.2105 63.1396 19.2327 63.3341 19.2327V18.6327ZM63.1866 18.8059C62.9139 17.6112 62.734 15.5245 62.654 12.5247L62.0542 12.5407C62.1342 15.5408 62.3144 17.6809 62.6017 18.9395L63.1866 18.8059ZM62.6541 12.5273C62.6275 11.0356 62.6007 10.0622 62.5736 9.61455L61.9747 9.65084C62.0009 10.0832 62.0275 11.0431 62.0542 12.5381L62.6541 12.5273ZM62.4405 9.88231C62.7014 9.70843 62.8814 9.65269 62.9941 9.65269V9.0527C62.7069 9.0527 62.4069 9.18363 62.1077 9.38308L62.4405 9.88231ZM62.9941 9.65269C63.1784 9.65269 63.3023 9.67165 63.3793 9.6973L63.569 9.12809C63.406 9.07374 63.2099 9.0527 62.9941 9.0527V9.65269ZM63.1761 9.44734C63.2405 10.0004 63.2741 11.1561 63.2741 12.9327H63.8741C63.8741 11.1626 63.8411 9.97163 63.7721 9.37805L63.1761 9.44734ZM63.2741 12.935C63.2874 14.7039 63.3008 15.7328 63.3145 16.0077L63.9138 15.9777C63.9008 15.7192 63.8875 14.7081 63.8741 12.9304L63.2741 12.935ZM63.906 16.0622C63.9758 15.7687 64.0574 15.3045 64.1509 14.6769L63.5574 14.5885C63.4642 15.2143 63.3858 15.6567 63.3223 15.9232L63.906 16.0622ZM64.1499 14.683C64.2563 14.0578 64.3491 13.5476 64.4283 13.1515L63.84 13.0339C63.7592 13.4378 63.6653 13.9542 63.5584 14.5824L64.1499 14.683ZM64.4287 13.1497C64.5058 12.751 64.6291 12.2826 64.8001 11.7434L64.2282 11.562C64.0525 12.1161 63.9224 12.6077 63.8396 13.0357L64.4287 13.1497ZM64.8001 11.7434C64.9687 11.2117 65.1517 10.8072 65.3438 10.5191L64.8445 10.1863C64.6099 10.5381 64.4063 11.0003 64.2282 11.562L64.8001 11.7434ZM65.3468 10.5144C65.533 10.2235 65.7915 9.97453 66.1298 9.76913L65.8184 9.25626C65.4101 9.50419 65.0819 9.81523 64.8415 10.191L65.3468 10.5144ZM66.1364 9.76505C66.4588 9.5578 66.8219 9.45269 67.2341 9.45269V8.85269C66.7131 8.85269 66.2362 8.98759 65.8119 9.26034L66.1364 9.76505ZM67.2341 9.45269C67.5004 9.45269 67.7127 9.51307 67.8838 9.62125C68.0552 9.72964 68.2043 9.89809 68.3246 10.1443L68.8637 9.88104C68.704 9.55397 68.4864 9.29241 68.2045 9.11414C67.9222 8.93566 67.5945 8.85269 67.2341 8.85269V9.45269ZM68.3284 10.1519C68.595 10.6608 68.7486 11.3132 68.7743 12.1222L69.374 12.1032C69.3463 11.2322 69.18 10.4845 68.8599 9.87349L68.3284 10.1519ZM68.7743 12.1222C68.8008 12.9589 68.8141 13.8091 68.8141 14.6727H69.4141C69.4141 13.803 69.4008 12.9464 69.374 12.1032L68.7743 12.1222ZM68.8142 14.6773C68.8278 15.5656 68.9372 16.3848 69.1451 17.133L69.7232 16.9724C69.531 16.2806 69.4271 15.5131 69.4141 14.6681L68.8142 14.6773ZM69.1465 17.1379C69.3755 17.9107 69.7807 18.4694 70.3977 18.7292L70.6306 18.1762C70.2342 18.0093 69.9195 17.6347 69.7218 16.9675L69.1465 17.1379Z" fill="#0C0C0C" mask="url(#path-2-outside-1_1_242)"/>
</svg>
