<svg width="110" height="117" viewBox="0 0 110 117" fill="none" xmlns="http://www.w3.org/2000/svg">
<g filter="url(#filter0_d_90_908)">
<rect width="76.3846" height="79.5097" transform="translate(65.6396) rotate(55.0113)" fill="#F3ABCB"/>
<g filter="url(#filter1_d_90_908)">
<path d="M83.5085 27.1265C82.4097 27.4615 82.4305 27.4469 73.1527 35.6769C69.3941 38.9898 66.2141 41.7116 66.108 41.6929C66.0018 41.6741 65.7481 39.4952 65.5755 36.8565C65.222 31.8328 64.7248 28.8631 64.1338 27.9745C63.4347 26.9755 62.5731 26.8964 61.4285 27.6975C60.2214 28.5424 59.4639 29.6307 55.88 35.6739C52.9412 40.6453 52.1816 41.6421 51.4595 41.4964C50.5251 41.3132 48.929 39.9188 41.0922 32.4432C36.8284 28.3891 32.9141 24.8344 32.3793 24.5576C30.6375 23.5753 29.703 24.9425 30.3751 27.5417C30.5748 28.2701 31.9377 31.8121 33.4005 35.4083C37.4663 45.3372 39.5137 51.7178 38.7853 52.2277C38.6188 52.3442 37.2141 52.2421 35.6304 52.0173C29.9388 51.1949 26.2033 50.8638 25.5394 51.1114C25.0296 51.3133 24.8651 51.5214 24.8214 52.0791C24.7714 52.6722 24.888 52.8387 25.685 53.4901C26.201 53.873 29.2414 55.5589 32.4357 57.1989C35.63 58.839 38.456 60.3958 38.7223 60.6434C39.5277 61.351 39.3695 61.8338 38.0958 62.8493C37.459 63.357 34.1625 65.9124 30.7619 68.5405C22.8119 74.725 21.6964 75.8778 22.5267 77.0641C23.488 78.4376 26.3599 77.9779 37.783 74.5406C42.6548 73.0842 46.8565 71.9107 47.1042 71.9544C47.4787 72.0023 47.4995 72.2978 47.2227 73.4528C46.4942 76.4432 45.1556 84.2325 45.243 84.9775C45.4655 86.7131 46.5435 87.0129 47.9379 85.7269C48.3583 85.3086 50.5394 82.6658 52.8141 79.8024C55.0681 76.9535 56.9599 74.6062 57.0306 74.6187C57.1014 74.6312 57.6777 76.1192 58.2957 77.8881C59.8084 82.1315 62.6424 88.7057 63.9533 90.8888C64.8918 92.4954 65.0437 92.6681 65.6868 92.7452C67.1705 92.9159 67.3516 92.2 68.9047 81.1289C69.4689 77.1063 70.0768 73.7662 70.2308 73.7205C70.3848 73.6747 71.9705 74.3012 73.7227 75.1212C78.124 77.1567 80.9854 78.0996 82.1716 77.8895C83.1123 77.7272 83.1539 77.6981 83.2788 76.9905C83.4745 75.9854 81.9242 73.1946 79.4334 69.946C78.3659 68.5537 77.4919 67.305 77.5315 67.1843C77.5357 67.0574 79.471 67.2531 81.7914 67.6445C88.5318 68.7249 94.6418 69.3475 96.5459 69.1C98.036 68.9252 98.6416 67.9742 97.9279 66.9545C97.622 66.5174 92.6984 63.8243 85.675 60.2133C82.8657 58.7688 80.5683 57.5242 80.5516 57.4119C80.535 57.2995 82.7056 55.7492 85.3507 53.9909C90.8345 50.3077 91.6753 49.4712 91.1093 48.4411C90.6973 47.6752 90.3664 47.6898 84.0483 48.4531C78.6022 49.1333 76.5835 49.3059 76.4233 49.077C76.3651 48.9938 76.6981 48.1406 77.1684 47.1292C77.6326 46.1532 78.6816 43.9307 79.5162 42.1993C82.0991 36.7638 84.5196 31.0077 84.8798 29.4844C85.1649 28.3856 85.1462 27.8716 84.8403 27.4346C84.4907 26.9351 84.2785 26.8976 83.5085 27.1265ZM82.8694 30.9535C81.81 33.6484 78.4944 40.961 76.6005 44.7672C75.002 47.9324 74.515 49.4515 74.9374 50.055C75.4326 50.7626 77.8924 50.7773 82.9578 50.0846C85.7755 49.7248 88.3477 49.4128 88.6724 49.4336C89.1801 49.4503 89.1885 49.5065 88.5516 50.0142C88.1708 50.3118 85.7504 52.0368 83.1844 53.8638L78.5018 57.1412L78.8327 57.7468C79.0824 58.1922 81.4818 59.5825 87.5083 62.7439C92.101 65.1416 95.9321 67.2041 96.0195 67.329C96.1069 67.4538 96.1173 67.6016 96.0341 67.6598C95.6387 67.9366 86.1283 66.8414 81.2254 65.9942C78.2537 65.4696 75.7232 65.1323 75.5567 65.2488C74.8491 65.7441 75.0925 66.2248 78.5884 71.2195C80.4966 73.9458 82.0011 76.2725 81.9407 76.4078C81.7076 77.005 78.5611 75.9206 73.6874 73.5646C70.7657 72.1368 69.7398 71.9557 69.0259 72.7964C68.7096 73.1419 68.1371 76.1781 67.2669 81.9342C66.5778 86.6644 65.92 90.5975 65.8159 90.6704C65.3372 91.0054 63.8911 87.8317 60.8137 79.8465C57.8486 72.1548 57.8049 72.0924 56.4314 73.0537C56.0568 73.3159 54.6083 75.0119 53.2326 76.8119C49.7632 81.3796 47.0244 84.5989 46.8496 84.3491C46.6311 84.037 47.2202 80.493 48.2402 76.0583C49.3059 71.4676 49.3268 70.8329 48.6068 70.4686C47.8014 70.0711 46.455 70.3624 39.1066 72.622C29.0987 75.6889 24.5078 76.7936 24.0854 76.1901C23.8087 75.7947 25.5443 74.3318 34.05 67.7895C37.7835 64.9282 40.3496 62.7912 40.5806 62.4124C41.5172 60.8267 40.0668 59.3304 35.2264 56.889C30.0364 54.2583 27.5746 52.9117 27.6121 52.6994C27.635 52.4663 28.9273 52.585 34.0674 53.3283C38.5354 53.9528 39.782 53.9175 40.1733 53.1476C41.0495 51.387 39.6222 46.5568 34.4161 33.5812C32.3478 28.4554 31.6903 26.4971 31.9609 26.3078C32.1898 26.1475 32.2335 26.21 40.0558 33.6647C47.7344 41.003 49.0433 42.1643 50.4272 42.901C52.4957 43.9958 53.324 43.23 57.4719 36.265C60.6479 30.8794 61.8967 29.0752 62.4856 28.9421C63.137 28.7652 63.5156 30.8567 63.9793 37.3225C64.3765 43.0288 64.5783 44.1588 65.1339 44.111C65.2609 44.1152 65.8144 43.6657 66.3659 43.1246C68.2765 41.2913 82.3679 29.3511 83.2649 28.8163C83.7311 28.552 83.6874 28.7997 82.8694 30.9535Z" fill="black"/>
</g>
<g filter="url(#filter2_d_90_908)">
<path d="M69.0764 49.8779C66.1797 47.3784 61.179 45.6384 57.2354 45.763C55.2501 45.8503 52.2949 46.6784 50.3179 47.7521C44.7405 50.7256 43.7432 58.338 48.2526 63.5846C52.841 68.8999 61.652 71.1667 67.0088 68.4096C71.3063 66.1769 73.8892 61.3615 73.1798 56.8039C72.9322 55.2098 72.7242 54.7353 71.5485 52.9227C70.687 51.6032 69.788 50.4961 69.0764 49.8779ZM71.4796 57.0327C71.7604 58.8516 71.2774 61.4841 70.3096 63.2467C69.5708 64.539 69.3023 64.8199 67.3253 66.2037C65.3274 67.602 64.9923 67.7435 63.469 68.0036C61.5377 68.3011 57.9667 67.7619 55.5132 66.7815C46.9082 63.3473 44.1326 54.0657 50.376 49.6958C53.0815 47.8022 57.6162 46.7058 60.5171 47.2179C62.0529 47.5072 65.9382 49.4699 67.5176 50.7519C69.2052 52.1442 71.2154 55.3263 71.4796 57.0327Z" fill="black"/>
</g>
<path d="M64.1335 57.5233C63.7111 57.2298 62.8391 57.9331 62.9015 58.5096C63.0242 59.5709 64.4976 59.5939 64.685 58.5326C64.7661 58.0727 64.6267 57.8292 64.1335 57.5233Z" fill="black"/>
<path d="M56.4282 53.0258C55.6852 53.2047 55.3814 53.7895 55.7122 54.3951C56.0805 55.0985 57.0149 54.9716 57.2231 54.2058C57.3854 53.596 56.9047 52.9093 56.4282 53.0258Z" fill="black"/>
<path d="M57.789 61.7473C56.4821 62.8481 56.1616 63.0105 55.5123 62.9688C54.863 62.9271 54.7194 62.8106 54.5655 62.2362C54.424 61.5911 54.6759 60.2675 55.1525 59.2208C55.3336 58.815 55.2899 58.7526 54.8945 58.7193C54.1952 58.6505 53.2711 60.4756 53.3418 61.7284C53.452 63.7907 55.0731 64.7335 56.9627 63.845C57.8618 63.4018 59.2458 61.968 59.4622 61.2584C59.7037 60.4073 59.2417 60.5446 57.789 61.7473Z" fill="black"/>
</g>
<defs>
<filter id="filter0_d_90_908" x="0.5" y="0" width="108.939" height="116.689" filterUnits="userSpaceOnUse" color-interpolation-filters="sRGB">
<feFlood flood-opacity="0" result="BackgroundImageFix"/>
<feColorMatrix in="SourceAlpha" type="matrix" values="0 0 0 0 0 0 0 0 0 0 0 0 0 0 0 0 0 0 127 0" result="hardAlpha"/>
<feOffset dy="8.5178"/>
<feComposite in2="hardAlpha" operator="out"/>
<feColorMatrix type="matrix" values="0 0 0 0 0 0 0 0 0 0 0 0 0 0 0 0 0 0 0.25 0"/>
<feBlend mode="normal" in2="BackgroundImageFix" result="effect1_dropShadow_90_908"/>
<feBlend mode="normal" in="SourceGraphic" in2="effect1_dropShadow_90_908" result="shape"/>
</filter>
<filter id="filter1_d_90_908" x="22.2959" y="24.2385" width="75.9307" height="70.6557" filterUnits="userSpaceOnUse" color-interpolation-filters="sRGB">
<feFlood flood-opacity="0" result="BackgroundImageFix"/>
<feColorMatrix in="SourceAlpha" type="matrix" values="0 0 0 0 0 0 0 0 0 0 0 0 0 0 0 0 0 0 127 0" result="hardAlpha"/>
<feOffset dy="2.12945"/>
<feComposite in2="hardAlpha" operator="out"/>
<feColorMatrix type="matrix" values="0 0 0 0 0 0 0 0 0 0 0 0 0 0 0 0 0 0 0.25 0"/>
<feBlend mode="normal" in2="BackgroundImageFix" result="effect1_dropShadow_90_908"/>
<feBlend mode="normal" in="SourceGraphic" in2="effect1_dropShadow_90_908" result="shape"/>
</filter>
<filter id="filter2_d_90_908" x="45.416" y="45.7567" width="27.8809" height="25.9616" filterUnits="userSpaceOnUse" color-interpolation-filters="sRGB">
<feFlood flood-opacity="0" result="BackgroundImageFix"/>
<feColorMatrix in="SourceAlpha" type="matrix" values="0 0 0 0 0 0 0 0 0 0 0 0 0 0 0 0 0 0 127 0" result="hardAlpha"/>
<feOffset dy="2.12945"/>
<feComposite in2="hardAlpha" operator="out"/>
<feColorMatrix type="matrix" values="0 0 0 0 0 0 0 0 0 0 0 0 0 0 0 0 0 0 0.25 0"/>
<feBlend mode="normal" in2="BackgroundImageFix" result="effect1_dropShadow_90_908"/>
<feBlend mode="normal" in="SourceGraphic" in2="effect1_dropShadow_90_908" result="shape"/>
</filter>
</defs>
</svg>
