<svg width="80" height="71" viewBox="0 0 80 71" fill="none" xmlns="http://www.w3.org/2000/svg">
<g filter="url(#filter0_d_90_1171)">
<path d="M34.2806 11.8185V23.6373L28.1143 20.5541C24.7228 18.9098 21.5369 17.471 20.9203 17.471C18.5565 17.471 20.2009 20.6569 24.62 24.5622C27.806 27.337 28.9364 28.8786 28.0115 29.1869C27.1893 29.4952 21.1258 31.1396 14.3429 32.7839C1.70201 35.8671 -0.867279 37.2031 1.08538 39.1557C1.80478 39.8751 6.73781 39.5668 17.7344 37.9225C26.3672 36.6892 33.6639 35.9698 33.9722 36.2781C34.2806 36.6892 32.5334 40.2862 30.1697 44.3971C27.7032 48.5079 25.6478 52.2077 25.4422 52.516C25.2367 52.9271 25.7505 53.7493 26.4699 54.3659C27.7032 55.3936 28.7309 54.8798 32.0196 52.0022C34.2806 49.9467 36.5415 48.3024 37.0554 48.3024C37.5692 48.3024 38.597 51.3855 39.4191 55.1881C41.1662 64.0264 42.3995 66.8013 44.6605 66.8013C47.4353 66.8013 47.9492 63.6154 47.127 51.7966C46.7159 45.8359 46.7159 41.1084 47.2298 41.1084C47.7436 41.1084 51.8545 42.7527 56.3764 44.7054C65.3175 48.6107 68.1951 49.1246 68.1951 46.8636C68.1951 44.8082 66.5508 43.3694 58.6374 37.9225C54.8349 35.456 51.7517 33.0922 51.7517 32.7839C51.7517 32.4756 56.993 30.7285 63.3649 28.8786C74.7725 25.5899 79.5 23.4317 79.5 21.5818C79.5 20.0403 73.0254 20.3486 62.7482 22.1985C57.8152 23.1234 53.396 23.6373 53.0877 23.2262C52.7794 22.9179 53.4988 20.2458 54.7321 17.3682C59.3568 6.1661 56.4792 5.13839 49.2852 15.5183C46.6131 19.5264 43.9411 22.404 43.53 21.8901C43.1189 21.4791 41.9884 17.3682 40.9607 12.8462C38.9053 3.18573 37.5692 -0.000183105 35.6166 -0.000183105C34.5889 -0.000183105 34.2806 2.67188 34.2806 11.8185Z" fill="#F3ABCB"/>
<path d="M34.8037 23.6373V24.4838L34.0466 24.1052L27.886 21.0249C27.8851 21.0244 27.8841 21.024 27.8832 21.0235C26.1912 20.2032 24.5552 19.4364 23.2678 18.8755C22.623 18.5946 22.0718 18.3681 21.6476 18.2127C21.4351 18.1349 21.2611 18.0774 21.1269 18.04C21.0599 18.0213 21.0076 18.009 20.9685 18.0017C20.9265 17.9937 20.9133 17.9941 20.9203 17.9941C20.6769 17.9941 20.5402 18.0362 20.4711 18.0741C20.4166 18.104 20.3946 18.1346 20.3803 18.1818C20.3352 18.3305 20.3661 18.6864 20.6907 19.3107C21.314 20.5093 22.7719 22.2306 24.9649 24.1688C26.56 25.5581 27.6772 26.6691 28.2792 27.4901C28.5701 27.8867 28.7979 28.2899 28.8398 28.6667C28.8627 28.8725 28.833 29.1001 28.6973 29.3037C28.5659 29.5008 28.3747 29.6156 28.1868 29.6799C27.7314 29.8487 25.9841 30.3426 23.5468 30.99C21.0769 31.6461 17.8619 32.4692 14.4669 33.2922C8.1325 34.8372 4.38871 35.93 2.47063 36.8641C1.99627 37.0951 1.6552 37.3065 1.42104 37.4988C1.18534 37.6924 1.08536 37.8442 1.04683 37.9496C0.993291 38.096 1.00353 38.334 1.45532 38.7858C1.45433 38.7848 1.45383 38.7843 1.45388 38.7842C1.45438 38.7836 1.50764 38.8246 1.68508 38.8697C1.86671 38.9158 2.12591 38.9534 2.47695 38.9756C3.17767 39.02 4.17822 38.9994 5.51866 38.9037C8.1956 38.7125 12.1618 38.2268 17.657 37.4051L17.6604 37.4046C21.9822 36.7872 25.972 36.298 28.9227 36.0017C30.397 35.8536 31.6177 35.7531 32.4927 35.7091C32.9286 35.6871 33.289 35.6787 33.5559 35.6868C33.6877 35.6907 33.811 35.6991 33.915 35.7154C33.9664 35.7235 34.0269 35.7355 34.0873 35.7555C34.1349 35.7713 34.2453 35.8113 34.3422 35.9082L34.3685 35.9345L34.3908 35.9642C34.4964 36.105 34.5213 36.259 34.5282 36.3547C34.5356 36.4586 34.526 36.5632 34.5112 36.6576C34.4814 36.8472 34.4181 37.0705 34.3355 37.3117C34.1687 37.7984 33.8957 38.4356 33.5458 39.1742C32.8441 40.6556 31.8091 42.5955 30.6232 44.6579L30.6233 44.6579L30.6183 44.6663C29.3875 46.7176 28.2589 48.667 27.4119 50.1429C27.1459 50.6063 26.9055 51.027 26.6977 51.3907C26.3113 52.0668 26.0373 52.5464 25.92 52.7387C25.9207 52.7486 25.9225 52.7633 25.9268 52.7837C25.9424 52.8575 25.9834 52.9655 26.0624 53.1025C26.2194 53.3747 26.4848 53.6891 26.8077 53.9663C27.0724 54.1864 27.2821 54.2869 27.4775 54.3182C27.6713 54.3492 27.9146 54.3222 28.2643 54.1692C28.9981 53.8482 30.0149 53.061 31.6713 51.6117C32.812 50.575 33.9553 49.6392 34.8835 48.9594C35.3472 48.6198 35.7649 48.3385 36.1062 48.1395C36.2764 48.0403 36.4366 47.9563 36.5798 47.8955C36.7068 47.8416 36.88 47.7792 37.0554 47.7792C37.3674 47.7792 37.5754 47.9942 37.6674 48.1012C37.7843 48.2371 37.8914 48.4128 37.9899 48.6019C38.1895 48.9851 38.4018 49.5183 38.6169 50.1508C39.0493 51.4216 39.5167 53.1636 39.9305 55.0775L39.9306 55.0775L39.9324 55.0866C40.8067 59.5098 41.5426 62.3575 42.3242 64.0944C42.7137 64.9599 43.096 65.5058 43.4754 65.8337C43.8389 66.1478 44.2177 66.2781 44.6605 66.2781C45.2418 66.2781 45.6358 66.118 45.9394 65.7731C46.2684 65.3994 46.5458 64.7481 46.7263 63.6464C47.0873 61.4429 47.0169 57.7534 46.6051 51.8329L46.6051 51.8326C46.399 48.8451 46.2954 46.1587 46.3084 44.2138C46.3148 43.2443 46.3503 42.4432 46.4198 41.8765C46.454 41.5979 46.4997 41.3467 46.5661 41.1533C46.5984 41.0594 46.6472 40.9434 46.7268 40.8413C46.8069 40.7386 46.9727 40.5852 47.2298 40.5852C47.379 40.5852 47.569 40.6341 47.7288 40.6799C47.913 40.7326 48.144 40.8081 48.4124 40.902C48.9504 41.09 49.6611 41.3595 50.4924 41.6881C52.1562 42.3459 54.3197 43.2474 56.5838 44.2251L56.5858 44.226C61.0647 46.1823 63.9648 47.2608 65.7323 47.5821C66.6306 47.7455 67.1211 47.6893 67.3682 47.5633C67.5411 47.4751 67.672 47.312 67.672 46.8636C67.672 46.4303 67.5879 46.0422 67.3553 45.616C67.1157 45.177 66.7081 44.6786 66.0282 44.0486C64.662 42.7827 62.3087 41.0847 58.3466 38.3575C56.4389 37.1199 54.7097 35.9069 53.454 34.9619C52.8265 34.4897 52.3111 34.0798 51.9492 33.7645C51.7697 33.6082 51.6183 33.4668 51.5079 33.3477C51.4537 33.2892 51.3985 33.2245 51.3535 33.1579C51.331 33.1245 51.3041 33.0805 51.2814 33.0286C51.2609 32.9819 51.2285 32.8947 51.2285 32.7839C51.2285 32.5956 51.3227 32.4678 51.3614 32.4203C51.4087 32.3623 51.4603 32.3197 51.4967 32.2922C51.5715 32.2356 51.6613 32.1843 51.7482 32.1392C51.9273 32.0462 52.176 31.9378 52.4762 31.8179C53.0808 31.5764 53.946 31.2676 55.0025 30.9133C57.1181 30.2038 60.0287 29.3024 63.219 28.3762L63.22 28.3759C68.9205 26.7325 72.9233 25.3793 75.4943 24.2141C76.7825 23.6303 77.681 23.1069 78.2497 22.6367C78.8276 22.1588 78.9755 21.8116 78.9768 21.5848C78.9717 21.5772 78.9536 21.5542 78.9054 21.521C78.7916 21.4428 78.577 21.3536 78.2217 21.28C77.518 21.1342 76.4389 21.0838 74.9989 21.1411C72.1317 21.2553 67.972 21.7898 62.8427 22.713C60.3683 23.177 58.0172 23.5389 56.2407 23.7334C55.3542 23.8305 54.5987 23.8872 54.0383 23.8922C53.7603 23.8947 53.5121 23.8848 53.313 23.8556C53.2142 23.8411 53.1095 23.8193 53.0121 23.7835C52.9331 23.7544 52.7993 23.6951 52.693 23.5699C52.6082 23.4751 52.565 23.3709 52.5415 23.294C52.5148 23.2065 52.5027 23.1184 52.4973 23.0398C52.4866 22.8831 52.4985 22.7042 52.5222 22.519C52.5701 22.1449 52.6769 21.6651 52.8276 21.121C53.1302 20.0291 53.6262 18.6207 54.2497 17.1655C55.3998 14.3794 56.0702 12.2563 56.3286 10.8021C56.4587 10.0698 56.4768 9.54657 56.4215 9.20738C56.3942 9.04013 56.3532 8.9443 56.3211 8.89448C56.2943 8.85294 56.2772 8.84703 56.27 8.84458L56.2697 8.84447C56.2321 8.83148 56.0546 8.81182 55.6483 9.04311C55.2657 9.26096 54.7779 9.64672 54.1883 10.2262C53.0133 11.3809 51.5068 13.2315 49.7178 15.8125C48.372 17.8309 47.0211 19.5729 45.9465 20.7523C45.4122 21.3387 44.9295 21.8047 44.539 22.0949C44.3491 22.236 44.145 22.3631 43.944 22.4269C43.7592 22.4856 43.396 22.5363 43.1393 22.2385C43.0221 22.1115 42.9328 21.9308 42.8666 21.7837C42.7856 21.6037 42.6981 21.376 42.6058 21.1123C42.4208 20.5836 42.2054 19.8781 41.9729 19.0514C41.5074 17.3962 40.9657 15.229 40.4505 12.9622L40.4505 12.9622L40.449 12.9551C39.4209 8.12318 38.5813 4.95549 37.7672 3.00156C37.3597 2.02371 36.9755 1.39241 36.6091 1.01102C36.2575 0.645111 35.938 0.522995 35.6166 0.522995C35.6155 0.522995 35.6157 0.521935 35.6142 0.522575C35.6128 0.523163 35.6099 0.5252 35.6033 0.53083C35.5778 0.552544 35.5215 0.615875 35.453 0.771271C35.3132 1.08844 35.1847 1.64204 35.083 2.53817C34.8813 4.31557 34.8037 7.24129 34.8037 11.8185V23.6373Z" stroke="black" stroke-width="1.04636"/>
</g>
<defs>
<filter id="filter0_d_90_1171" x="0.5" y="0" width="79" height="70.8635" filterUnits="userSpaceOnUse" color-interpolation-filters="sRGB">
<feFlood flood-opacity="0" result="BackgroundImageFix"/>
<feColorMatrix in="SourceAlpha" type="matrix" values="0 0 0 0 0 0 0 0 0 0 0 0 0 0 0 0 0 0 127 0" result="hardAlpha"/>
<feOffset dy="4.06226"/>
<feComposite in2="hardAlpha" operator="out"/>
<feColorMatrix type="matrix" values="0 0 0 0 0.745098 0 0 0 0 0.74902 0 0 0 0 0.705882 0 0 0 1 0"/>
<feBlend mode="normal" in2="BackgroundImageFix" result="effect1_dropShadow_90_1171"/>
<feBlend mode="normal" in="SourceGraphic" in2="effect1_dropShadow_90_1171" result="shape"/>
</filter>
</defs>
</svg>
