<svg width="82" height="74" viewBox="0 0 82 74" fill="none" xmlns="http://www.w3.org/2000/svg">
<g filter="url(#filter0_d_90_952)">
<path d="M35.0371 13.0527V25.2488L28.6739 22.0672C25.1741 20.3704 21.8864 18.8856 21.2501 18.8856C18.8109 18.8856 20.5078 22.1733 25.0681 26.2033C28.3557 29.0668 29.5223 30.6576 28.5678 30.9757C27.7194 31.2939 21.4622 32.9907 14.4627 34.6876C1.41813 37.8692 -1.23321 39.2479 0.781807 41.2629C1.52418 42.0053 6.61475 41.6871 17.9625 39.9903C26.871 38.7176 34.4008 37.9752 34.7189 38.2934C35.0371 38.7176 33.2342 42.4295 30.7949 46.6716C28.2497 50.9138 26.1286 54.7317 25.9165 55.0499C25.7044 55.4741 26.2346 56.3225 26.977 56.9588C28.2497 58.0194 29.3102 57.4891 32.7039 54.5196C35.0371 52.3985 37.3703 50.7017 37.9005 50.7017C38.4308 50.7017 39.4913 53.8833 40.3398 57.8072C42.1427 66.9278 43.4153 69.7913 45.7485 69.7913C48.6119 69.7913 49.1422 66.5036 48.2938 54.3075C47.8695 48.1564 47.8695 43.2779 48.3998 43.2779C48.9301 43.2779 53.1722 44.9748 57.8386 46.9898C67.0652 51.0198 70.0347 51.5501 70.0347 49.2169C70.0347 47.0958 68.3379 45.6111 60.1717 39.9903C56.2478 37.445 53.0662 35.0057 53.0662 34.6876C53.0662 34.3694 58.4749 32.5665 65.0502 30.6576C76.8221 27.2638 81.7006 25.0367 81.7006 23.1278C81.7006 21.537 75.0192 21.8551 64.4139 23.7641C59.3233 24.7186 54.763 25.2488 54.4449 24.8246C54.1267 24.5065 54.8691 21.7491 56.1417 18.7796C60.9141 7.21974 57.9446 6.1592 50.5209 16.8706C47.7635 21.0067 45.0061 23.9762 44.5819 23.4459C44.1577 23.0217 42.9911 18.7796 41.9306 14.1132C39.8095 4.14419 38.4308 0.856529 36.4158 0.856529C35.3552 0.856529 35.0371 3.61392 35.0371 13.0527Z" fill="#FF6258"/>
<path d="M35.8469 25.2488V26.5592L34.6749 25.9732L28.316 22.7937C26.572 21.9482 24.888 21.159 23.5648 20.5825C22.9014 20.2936 22.3382 20.0622 21.9078 19.9045C21.692 19.8255 21.5199 19.7688 21.3909 19.7329C21.2821 19.7025 21.2366 19.6965 21.2348 19.6955C21.0783 19.6968 20.9894 19.7175 20.9463 19.7323C20.9406 19.8314 20.9704 20.1166 21.2528 20.6596C21.8729 21.8521 23.3476 23.6019 25.6022 25.5946C27.2492 27.0292 28.4215 28.192 29.0618 29.0651C29.3661 29.4801 29.6393 29.9451 29.6909 30.409C29.7196 30.6679 29.6837 30.9707 29.5001 31.246C29.3236 31.5108 29.0712 31.6588 28.8392 31.7388C28.3477 31.9201 26.5311 32.4329 24.0298 33.0973C21.4792 33.7748 18.1595 34.6247 14.654 35.4745C8.11055 37.0705 4.27767 38.192 2.32949 39.1408C1.85042 39.3741 1.51884 39.5815 1.29951 39.7617C1.0778 39.9437 1.01294 40.0634 0.995563 40.1109C0.986963 40.1344 0.978896 40.1589 1.00782 40.2311C1.04411 40.3217 1.13316 40.4637 1.32479 40.6602C1.34371 40.6685 1.38734 40.6858 1.46712 40.7061C1.63206 40.748 1.88124 40.7853 2.23488 40.8077C2.94006 40.8523 3.95854 40.832 5.33743 40.7335C8.08912 40.537 12.1736 40.0371 17.8427 39.1893L17.8479 39.1886C22.3106 38.551 26.4317 38.0458 29.4811 37.7395C31.0042 37.5865 32.269 37.4823 33.1786 37.4365C33.6309 37.4138 34.0112 37.4047 34.2974 37.4133C34.438 37.4176 34.5781 37.4266 34.7016 37.446C34.7626 37.4556 34.8408 37.4708 34.9224 37.4978C34.9842 37.5182 35.1465 37.5757 35.2916 37.7208L35.3322 37.7615L35.3668 37.8075C35.5203 38.0122 35.5531 38.2308 35.5619 38.3532C35.5715 38.4883 35.5588 38.6183 35.5417 38.7268C35.5074 38.9452 35.4364 39.1927 35.3491 39.4474C35.1722 39.9639 34.8854 40.632 34.5228 41.3975C33.7946 42.9349 32.7228 44.9435 31.497 47.0753L31.4932 47.0818L31.4894 47.0883C30.2206 49.203 29.0569 51.2129 28.1831 52.7353C27.9164 53.2001 27.6735 53.6253 27.4616 53.9961C27.1103 54.6108 26.8443 55.0762 26.6968 55.3252C26.7132 55.3712 26.742 55.4365 26.7903 55.5201C26.934 55.7692 27.1856 56.0702 27.4997 56.3402C27.7501 56.5481 27.9223 56.6211 28.0594 56.643C28.1937 56.6645 28.3913 56.6525 28.7205 56.5085C29.4322 56.1971 30.4494 55.416 32.1649 53.9151C33.3472 52.8406 34.5336 51.8695 35.4998 51.1619C35.9822 50.8086 36.4216 50.5122 36.7851 50.3003C36.966 50.1948 37.1421 50.1021 37.3043 50.0332C37.4413 49.9751 37.6623 49.8918 37.9005 49.8918C38.3503 49.8918 38.6351 50.1997 38.7368 50.318C38.877 50.481 38.9987 50.6832 39.1043 50.8861C39.3196 51.2994 39.5438 51.8646 39.7675 52.5221C40.218 53.8463 40.7029 55.6546 41.1313 57.6361L41.1328 57.6431L41.1342 57.6502C42.0369 62.2166 42.7915 65.1266 43.5838 66.8872C43.9779 67.763 44.3525 68.2865 44.7021 68.5886C45.0269 68.8693 45.3547 68.9815 45.7485 68.9815C46.2903 68.9815 46.6152 68.8364 46.8657 68.5519C47.1553 68.2229 47.4306 67.6108 47.6139 66.492C47.9805 64.2545 47.9113 60.479 47.4859 54.3637L47.4859 54.3632C47.273 51.2765 47.1656 48.497 47.179 46.4806C47.1857 45.4772 47.2224 44.6381 47.2961 44.0376C47.332 43.7448 47.3819 43.4632 47.4597 43.2366C47.4971 43.1275 47.5592 42.9757 47.6679 42.8363C47.7773 42.6959 48.0185 42.4681 48.3998 42.4681C48.5977 42.4681 48.8296 42.5306 48.9891 42.5762C49.1863 42.6326 49.4302 42.7125 49.7093 42.8101C50.2694 43.0058 51.0067 43.2854 51.8659 43.6251C53.5862 44.3052 55.8215 45.2367 58.1596 46.2463L58.1627 46.2477C62.789 48.2683 65.7534 49.3677 67.5415 49.6928C68.4581 49.8594 68.8876 49.7857 69.0588 49.6985L69.061 49.6973C69.1181 49.6683 69.2249 49.614 69.2249 49.2169C69.2249 48.8113 69.1478 48.4559 68.9311 48.0588C68.7036 47.6419 68.3063 47.1505 67.6151 46.51C66.2229 45.22 63.8131 43.4799 59.7217 40.6636C57.7498 39.3842 55.9613 38.1298 54.6605 37.1508C54.0107 36.6618 53.4731 36.2344 53.0927 35.9031C52.9047 35.7393 52.7401 35.5862 52.6166 35.4529C52.5563 35.3879 52.4889 35.3096 52.4315 35.2245C52.4027 35.1818 52.3657 35.1217 52.3336 35.0484C52.305 34.983 52.2563 34.8541 52.2563 34.6876C52.2563 34.4011 52.3994 34.2089 52.4542 34.1418C52.5221 34.0584 52.5942 33.9996 52.6403 33.9648C52.7355 33.8928 52.8437 33.8317 52.9382 33.7827C53.1349 33.6805 53.4015 33.5648 53.7136 33.4401C54.3446 33.188 55.2431 32.8675 56.335 32.5013C58.5227 31.7676 61.5299 30.8363 64.8244 29.8798L64.8259 29.8794C70.7067 28.184 74.8214 26.7921 77.4556 25.5983C78.7768 24.9995 79.6787 24.471 80.2384 24.0083C80.668 23.6531 80.8194 23.4014 80.8688 23.2495C80.7718 23.2004 80.6013 23.1375 80.3267 23.0806C79.6335 22.937 78.5465 22.8838 77.0665 22.9427C74.1264 23.0598 69.8486 23.6088 64.5605 24.5605C62.0028 25.0401 59.5698 25.4147 57.7279 25.6164C56.8097 25.7169 56.0198 25.7766 55.4282 25.7819C55.1358 25.7845 54.8638 25.7744 54.6381 25.7412C54.5265 25.7248 54.3982 25.699 54.2736 25.6531C54.1761 25.6172 53.9878 25.5364 53.8341 25.3568C53.7131 25.2206 53.6538 25.0743 53.623 24.9735C53.5875 24.8573 53.5727 24.7445 53.5663 24.6508C53.5535 24.4641 53.568 24.2599 53.5935 24.0606C53.6453 23.6564 53.7592 23.1473 53.9163 22.5801C54.2322 21.4402 54.7482 19.9759 55.3952 18.4656C56.5788 15.5982 57.2619 13.4286 57.5234 11.9565C57.6556 11.2125 57.6685 10.7075 57.6187 10.4016C57.6086 10.3397 57.5976 10.2938 57.5877 10.2603C57.5189 10.2783 57.4008 10.3207 57.2208 10.4232C56.8548 10.6316 56.3705 11.0116 55.7698 11.602C54.5748 12.7764 53.0318 14.6699 51.1905 17.3261C49.7966 19.4163 48.3949 21.2245 47.2751 22.4536C46.7198 23.063 46.2079 23.5589 45.7841 23.8739C45.5805 24.0252 45.3412 24.1777 45.0908 24.2572C44.8643 24.329 44.3469 24.4126 43.9764 23.9841C43.8234 23.8163 43.7176 23.5945 43.6512 23.4468C43.5631 23.2511 43.4699 23.008 43.3734 22.7325C43.1798 22.1792 42.9558 21.445 42.7153 20.5896C42.2333 18.8759 41.6732 16.6349 41.1409 14.2927L41.1408 14.2927L41.1385 14.2817C40.0774 9.29462 39.2152 6.04844 38.3859 4.05796C37.9706 3.06136 37.5896 2.4454 37.2453 2.08704C36.9759 1.80661 36.7477 1.70067 36.5362 1.67378C36.5244 1.69591 36.5102 1.72464 36.494 1.76151C36.367 2.04946 36.2378 2.58657 36.1334 3.50638C35.9272 5.32304 35.8469 8.32725 35.8469 13.0527V25.2488ZM26.6784 55.2571C26.6784 55.257 26.6785 55.2581 26.6788 55.2604L26.6784 55.2571ZM57.5534 10.1807C57.5531 10.1812 57.5554 10.1855 57.5613 10.1919C57.5566 10.1833 57.5537 10.1801 57.5534 10.1807ZM36.5787 1.60777C36.5787 1.60741 36.5765 1.6095 36.5723 1.61497C36.5766 1.61086 36.5787 1.60812 36.5787 1.60777Z" stroke="black" stroke-width="1.61966"/>
</g>
<defs>
<filter id="filter0_d_90_952" x="0.177734" y="0.856537" width="81.5225" height="73.1267" filterUnits="userSpaceOnUse" color-interpolation-filters="sRGB">
<feFlood flood-opacity="0" result="BackgroundImageFix"/>
<feColorMatrix in="SourceAlpha" type="matrix" values="0 0 0 0 0 0 0 0 0 0 0 0 0 0 0 0 0 0 127 0" result="hardAlpha"/>
<feOffset dy="4.19199"/>
<feComposite in2="hardAlpha" operator="out"/>
<feColorMatrix type="matrix" values="0 0 0 0 0.745098 0 0 0 0 0.74902 0 0 0 0 0.705882 0 0 0 1 0"/>
<feBlend mode="normal" in2="BackgroundImageFix" result="effect1_dropShadow_90_952"/>
<feBlend mode="normal" in="SourceGraphic" in2="effect1_dropShadow_90_952" result="shape"/>
</filter>
</defs>
</svg>
